<svg xmlns="http://www.w3.org/2000/svg" xmlns:xlink="http://www.w3.org/1999/xlink" width="100" zoomAndPan="magnify" viewBox="0 0 75 30.000001" height="40" preserveAspectRatio="xMidYMid meet" version="1.0"><defs><g><g id="id1"/><g id="id2"/></g><clipPath id="id3"><path d="M 1.210938 5.6875 L 16.453125 5.6875 L 16.453125 23.105469 L 1.210938 23.105469 Z M 1.210938 5.6875 " clip-rule="nonzero"/></clipPath><clipPath id="id4"><path d="M 8.574219 11.5625 C 8.574219 9.53125 9.285156 7.660156 10.476562 6.179688 C 10.636719 5.980469 10.496094 5.691406 10.238281 5.6875 C 10.199219 5.6875 10.160156 5.6875 10.125 5.6875 C 5.238281 5.6875 1.277344 9.558594 1.253906 14.34375 C 1.230469 19.117188 5.167969 23.035156 10.035156 23.082031 C 12.445312 23.105469 14.636719 22.183594 16.246094 20.679688 C 16.429688 20.503906 16.332031 20.195312 16.078125 20.160156 C 11.828125 19.515625 8.574219 15.914062 8.574219 11.5625 " clip-rule="nonzero"/></clipPath><linearGradient x1="-0.151297" gradientTransform="matrix(15.087698, 0, 0, 17.396065, 1.254351, 5.685921)" y1="0.23985" x2="1.023319" gradientUnits="userSpaceOnUse" y2="0.973437" xlink:type="simple" xlink:actuate="onLoad" id="id5" xlink:show="other"><stop stop-opacity="1" stop-color="rgb(25.498962%, 65.499878%, 93.699646%)" offset="0"/><stop stop-opacity="1" stop-color="rgb(25.498962%, 65.499878%, 93.699646%)" offset="0.125"/><stop stop-opacity="1" stop-color="rgb(25.498962%, 65.499878%, 93.699646%)" offset="0.140625"/><stop stop-opacity="1" stop-color="rgb(25.531006%, 65.444946%, 93.690491%)" offset="0.148438"/><stop stop-opacity="1" stop-color="rgb(25.799561%, 65.000916%, 93.6203%)" offset="0.152344"/><stop stop-opacity="1" stop-color="rgb(26.034546%, 64.613342%, 93.559265%)" offset="0.15625"/><stop stop-opacity="1" stop-color="rgb(26.268005%, 64.224243%, 93.496704%)" offset="0.160156"/><stop stop-opacity="1" stop-color="rgb(26.502991%, 63.835144%, 93.435669%)" offset="0.164063"/><stop stop-opacity="1" stop-color="rgb(26.737976%, 63.446045%, 93.373108%)" offset="0.167969"/><stop stop-opacity="1" stop-color="rgb(26.972961%, 63.056946%, 93.312073%)" offset="0.171875"/><stop stop-opacity="1" stop-color="rgb(27.206421%, 62.667847%, 93.249512%)" offset="0.175781"/><stop stop-opacity="1" stop-color="rgb(27.441406%, 62.280273%, 93.188477%)" offset="0.179688"/><stop stop-opacity="1" stop-color="rgb(27.676392%, 61.891174%, 93.125916%)" offset="0.183594"/><stop stop-opacity="1" stop-color="rgb(27.911377%, 61.502075%, 93.06488%)" offset="0.1875"/><stop stop-opacity="1" stop-color="rgb(28.144836%, 61.112976%, 93.002319%)" offset="0.191406"/><stop stop-opacity="1" stop-color="rgb(28.379822%, 60.725403%, 92.941284%)" offset="0.195312"/><stop stop-opacity="1" stop-color="rgb(28.614807%, 60.336304%, 92.878723%)" offset="0.199219"/><stop stop-opacity="1" stop-color="rgb(28.849792%, 59.947205%, 92.817688%)" offset="0.203125"/><stop stop-opacity="1" stop-color="rgb(29.083252%, 59.558105%, 92.756653%)" offset="0.207031"/><stop stop-opacity="1" stop-color="rgb(29.318237%, 59.169006%, 92.695618%)" offset="0.210938"/><stop stop-opacity="1" stop-color="rgb(29.553223%, 58.779907%, 92.633057%)" offset="0.214844"/><stop stop-opacity="1" stop-color="rgb(29.788208%, 58.392334%, 92.572021%)" offset="0.21875"/><stop stop-opacity="1" stop-color="rgb(30.021667%, 58.003235%, 92.50946%)" offset="0.222656"/><stop stop-opacity="1" stop-color="rgb(30.256653%, 57.614136%, 92.448425%)" offset="0.226563"/><stop stop-opacity="1" stop-color="rgb(30.491638%, 57.225037%, 92.385864%)" offset="0.230469"/><stop stop-opacity="1" stop-color="rgb(30.726624%, 56.835938%, 92.324829%)" offset="0.234375"/><stop stop-opacity="1" stop-color="rgb(30.960083%, 56.446838%, 92.262268%)" offset="0.238281"/><stop stop-opacity="1" stop-color="rgb(31.195068%, 56.059265%, 92.201233%)" offset="0.242188"/><stop stop-opacity="1" stop-color="rgb(31.430054%, 55.670166%, 92.138672%)" offset="0.246094"/><stop stop-opacity="1" stop-color="rgb(31.665039%, 55.281067%, 92.077637%)" offset="0.25"/><stop stop-opacity="1" stop-color="rgb(31.898499%, 54.891968%, 92.015076%)" offset="0.253906"/><stop stop-opacity="1" stop-color="rgb(32.133484%, 54.504395%, 91.954041%)" offset="0.257812"/><stop stop-opacity="1" stop-color="rgb(32.366943%, 54.115295%, 91.893005%)" offset="0.261719"/><stop stop-opacity="1" stop-color="rgb(32.601929%, 53.726196%, 91.83197%)" offset="0.265625"/><stop stop-opacity="1" stop-color="rgb(32.836914%, 53.337097%, 91.769409%)" offset="0.269531"/><stop stop-opacity="1" stop-color="rgb(33.071899%, 52.947998%, 91.708374%)" offset="0.273438"/><stop stop-opacity="1" stop-color="rgb(33.305359%, 52.558899%, 91.645813%)" offset="0.277344"/><stop stop-opacity="1" stop-color="rgb(33.540344%, 52.171326%, 91.584778%)" offset="0.28125"/><stop stop-opacity="1" stop-color="rgb(33.77533%, 51.782227%, 91.522217%)" offset="0.285156"/><stop stop-opacity="1" stop-color="rgb(34.010315%, 51.393127%, 91.461182%)" offset="0.289062"/><stop stop-opacity="1" stop-color="rgb(34.243774%, 51.004028%, 91.398621%)" offset="0.292969"/><stop stop-opacity="1" stop-color="rgb(34.47876%, 50.616455%, 91.337585%)" offset="0.296875"/><stop stop-opacity="1" stop-color="rgb(34.713745%, 50.227356%, 91.275024%)" offset="0.300781"/><stop stop-opacity="1" stop-color="rgb(34.94873%, 49.838257%, 91.213989%)" offset="0.304688"/><stop stop-opacity="1" stop-color="rgb(35.18219%, 49.449158%, 91.152954%)" offset="0.308594"/><stop stop-opacity="1" stop-color="rgb(35.417175%, 49.060059%, 91.091919%)" offset="0.3125"/><stop stop-opacity="1" stop-color="rgb(35.652161%, 48.670959%, 91.029358%)" offset="0.316406"/><stop stop-opacity="1" stop-color="rgb(35.887146%, 48.283386%, 90.968323%)" offset="0.320313"/><stop stop-opacity="1" stop-color="rgb(36.120605%, 47.894287%, 90.905762%)" offset="0.324219"/><stop stop-opacity="1" stop-color="rgb(36.355591%, 47.505188%, 90.844727%)" offset="0.328125"/><stop stop-opacity="1" stop-color="rgb(36.590576%, 47.116089%, 90.782166%)" offset="0.332031"/><stop stop-opacity="1" stop-color="rgb(36.825562%, 46.72699%, 90.72113%)" offset="0.335938"/><stop stop-opacity="1" stop-color="rgb(37.059021%, 46.337891%, 90.658569%)" offset="0.339844"/><stop stop-opacity="1" stop-color="rgb(37.294006%, 45.950317%, 90.597534%)" offset="0.34375"/><stop stop-opacity="1" stop-color="rgb(37.528992%, 45.561218%, 90.534973%)" offset="0.347656"/><stop stop-opacity="1" stop-color="rgb(37.763977%, 45.172119%, 90.473938%)" offset="0.351562"/><stop stop-opacity="1" stop-color="rgb(37.997437%, 44.78302%, 90.411377%)" offset="0.355469"/><stop stop-opacity="1" stop-color="rgb(38.232422%, 44.395447%, 90.350342%)" offset="0.359375"/><stop stop-opacity="1" stop-color="rgb(38.467407%, 44.006348%, 90.289307%)" offset="0.363281"/><stop stop-opacity="1" stop-color="rgb(38.702393%, 43.617249%, 90.228271%)" offset="0.367188"/><stop stop-opacity="1" stop-color="rgb(38.935852%, 43.228149%, 90.16571%)" offset="0.371094"/><stop stop-opacity="1" stop-color="rgb(39.170837%, 42.83905%, 90.104675%)" offset="0.375"/><stop stop-opacity="1" stop-color="rgb(39.405823%, 42.449951%, 90.042114%)" offset="0.378906"/><stop stop-opacity="1" stop-color="rgb(39.640808%, 42.062378%, 89.981079%)" offset="0.382813"/><stop stop-opacity="1" stop-color="rgb(39.874268%, 41.673279%, 89.918518%)" offset="0.386719"/><stop stop-opacity="1" stop-color="rgb(40.109253%, 41.28418%, 89.857483%)" offset="0.390625"/><stop stop-opacity="1" stop-color="rgb(40.344238%, 40.895081%, 89.794922%)" offset="0.394531"/><stop stop-opacity="1" stop-color="rgb(40.579224%, 40.505981%, 89.733887%)" offset="0.398438"/><stop stop-opacity="1" stop-color="rgb(40.812683%, 40.116882%, 89.671326%)" offset="0.402344"/><stop stop-opacity="1" stop-color="rgb(41.047668%, 39.729309%, 89.610291%)" offset="0.40625"/><stop stop-opacity="1" stop-color="rgb(41.282654%, 39.34021%, 89.547729%)" offset="0.410156"/><stop stop-opacity="1" stop-color="rgb(41.517639%, 38.951111%, 89.486694%)" offset="0.414062"/><stop stop-opacity="1" stop-color="rgb(41.751099%, 38.562012%, 89.425659%)" offset="0.417969"/><stop stop-opacity="1" stop-color="rgb(41.986084%, 38.174438%, 89.364624%)" offset="0.421875"/><stop stop-opacity="1" stop-color="rgb(42.221069%, 37.785339%, 89.302063%)" offset="0.425781"/><stop stop-opacity="1" stop-color="rgb(42.456055%, 37.39624%, 89.241028%)" offset="0.429688"/><stop stop-opacity="1" stop-color="rgb(42.689514%, 37.007141%, 89.178467%)" offset="0.433594"/><stop stop-opacity="1" stop-color="rgb(42.9245%, 36.618042%, 89.117432%)" offset="0.4375"/><stop stop-opacity="1" stop-color="rgb(43.159485%, 36.228943%, 89.054871%)" offset="0.441406"/><stop stop-opacity="1" stop-color="rgb(43.39447%, 35.84137%, 88.993835%)" offset="0.445313"/><stop stop-opacity="1" stop-color="rgb(43.62793%, 35.452271%, 88.931274%)" offset="0.449219"/><stop stop-opacity="1" stop-color="rgb(43.862915%, 35.063171%, 88.870239%)" offset="0.453125"/><stop stop-opacity="1" stop-color="rgb(44.0979%, 34.674072%, 88.807678%)" offset="0.457031"/><stop stop-opacity="1" stop-color="rgb(44.332886%, 34.286499%, 88.746643%)" offset="0.460938"/><stop stop-opacity="1" stop-color="rgb(44.566345%, 33.8974%, 88.684082%)" offset="0.464844"/><stop stop-opacity="1" stop-color="rgb(44.801331%, 33.508301%, 88.623047%)" offset="0.46875"/><stop stop-opacity="1" stop-color="rgb(45.036316%, 33.119202%, 88.562012%)" offset="0.472656"/><stop stop-opacity="1" stop-color="rgb(45.271301%, 32.730103%, 88.500977%)" offset="0.476563"/><stop stop-opacity="1" stop-color="rgb(45.504761%, 32.341003%, 88.438416%)" offset="0.480469"/><stop stop-opacity="1" stop-color="rgb(45.739746%, 31.95343%, 88.37738%)" offset="0.484375"/><stop stop-opacity="1" stop-color="rgb(45.974731%, 31.564331%, 88.314819%)" offset="0.488281"/><stop stop-opacity="1" stop-color="rgb(46.209717%, 31.175232%, 88.253784%)" offset="0.492188"/><stop stop-opacity="1" stop-color="rgb(46.443176%, 30.786133%, 88.191223%)" offset="0.496094"/><stop stop-opacity="1" stop-color="rgb(46.678162%, 30.397034%, 88.130188%)" offset="0.5"/><stop stop-opacity="1" stop-color="rgb(46.913147%, 30.007935%, 88.067627%)" offset="0.503906"/><stop stop-opacity="1" stop-color="rgb(47.148132%, 29.620361%, 88.006592%)" offset="0.507813"/><stop stop-opacity="1" stop-color="rgb(47.381592%, 29.231262%, 87.944031%)" offset="0.511719"/><stop stop-opacity="1" stop-color="rgb(47.616577%, 28.842163%, 87.882996%)" offset="0.515625"/><stop stop-opacity="1" stop-color="rgb(47.851562%, 28.453064%, 87.820435%)" offset="0.519531"/><stop stop-opacity="1" stop-color="rgb(48.086548%, 28.065491%, 87.759399%)" offset="0.523438"/><stop stop-opacity="1" stop-color="rgb(48.320007%, 27.676392%, 87.698364%)" offset="0.527344"/><stop stop-opacity="1" stop-color="rgb(48.554993%, 27.287292%, 87.637329%)" offset="0.53125"/><stop stop-opacity="1" stop-color="rgb(48.789978%, 26.898193%, 87.574768%)" offset="0.535156"/><stop stop-opacity="1" stop-color="rgb(49.024963%, 26.509094%, 87.513733%)" offset="0.539063"/><stop stop-opacity="1" stop-color="rgb(49.258423%, 26.119995%, 87.451172%)" offset="0.542969"/><stop stop-opacity="1" stop-color="rgb(49.493408%, 25.732422%, 87.390137%)" offset="0.546875"/><stop stop-opacity="1" stop-color="rgb(49.728394%, 25.343323%, 87.327576%)" offset="0.550781"/><stop stop-opacity="1" stop-color="rgb(49.963379%, 24.954224%, 87.266541%)" offset="0.554688"/><stop stop-opacity="1" stop-color="rgb(50.196838%, 24.565125%, 87.203979%)" offset="0.558594"/><stop stop-opacity="1" stop-color="rgb(50.431824%, 24.176025%, 87.142944%)" offset="0.5625"/><stop stop-opacity="1" stop-color="rgb(50.604248%, 23.942566%, 87.14447%)" offset="0.566406"/><stop stop-opacity="1" stop-color="rgb(50.776672%, 23.709106%, 87.147522%)" offset="0.570313"/><stop stop-opacity="1" stop-color="rgb(50.914001%, 23.561096%, 87.184143%)" offset="0.578125"/><stop stop-opacity="1" stop-color="rgb(51.18866%, 23.266602%, 87.258911%)" offset="0.585938"/><stop stop-opacity="1" stop-color="rgb(51.463318%, 22.972107%, 87.333679%)" offset="0.59375"/><stop stop-opacity="1" stop-color="rgb(51.737976%, 22.677612%, 87.408447%)" offset="0.601563"/><stop stop-opacity="1" stop-color="rgb(52.012634%, 22.381592%, 87.484741%)" offset="0.609375"/><stop stop-opacity="1" stop-color="rgb(52.287292%, 22.087097%, 87.559509%)" offset="0.617013"/><stop stop-opacity="1" stop-color="rgb(52.424622%, 21.940613%, 87.597656%)" offset="0.617188"/><stop stop-opacity="1" stop-color="rgb(52.561951%, 21.792603%, 87.634277%)" offset="0.625"/><stop stop-opacity="1" stop-color="rgb(52.838135%, 21.498108%, 87.709045%)" offset="0.632812"/><stop stop-opacity="1" stop-color="rgb(53.112793%, 21.202087%, 87.783813%)" offset="0.640625"/><stop stop-opacity="1" stop-color="rgb(53.387451%, 20.907593%, 87.858582%)" offset="0.648438"/><stop stop-opacity="1" stop-color="rgb(53.662109%, 20.613098%, 87.93335%)" offset="0.65625"/><stop stop-opacity="1" stop-color="rgb(53.936768%, 20.318604%, 88.008118%)" offset="0.664062"/><stop stop-opacity="1" stop-color="rgb(54.211426%, 20.022583%, 88.084412%)" offset="0.671875"/><stop stop-opacity="1" stop-color="rgb(54.486084%, 19.728088%, 88.15918%)" offset="0.679688"/><stop stop-opacity="1" stop-color="rgb(54.760742%, 19.433594%, 88.233948%)" offset="0.6875"/><stop stop-opacity="1" stop-color="rgb(55.036926%, 19.139099%, 88.308716%)" offset="0.695312"/><stop stop-opacity="1" stop-color="rgb(55.311584%, 18.844604%, 88.383484%)" offset="0.703125"/><stop stop-opacity="1" stop-color="rgb(55.586243%, 18.548584%, 88.458252%)" offset="0.710938"/><stop stop-opacity="1" stop-color="rgb(55.860901%, 18.254089%, 88.53302%)" offset="0.71875"/><stop stop-opacity="1" stop-color="rgb(56.137085%, 17.965698%, 88.604736%)" offset="0.726563"/><stop stop-opacity="1" stop-color="rgb(56.414795%, 17.683411%, 88.670349%)" offset="0.734375"/><stop stop-opacity="1" stop-color="rgb(56.692505%, 17.405701%, 88.734436%)" offset="0.742188"/><stop stop-opacity="1" stop-color="rgb(56.970215%, 17.127991%, 88.798523%)" offset="0.75"/><stop stop-opacity="1" stop-color="rgb(57.249451%, 16.848755%, 88.861084%)" offset="0.757813"/><stop stop-opacity="1" stop-color="rgb(57.527161%, 16.571045%, 88.925171%)" offset="0.765625"/><stop stop-opacity="1" stop-color="rgb(57.804871%, 16.293335%, 88.989258%)" offset="0.773438"/><stop stop-opacity="1" stop-color="rgb(58.084106%, 16.014099%, 89.053345%)" offset="0.78125"/><stop stop-opacity="1" stop-color="rgb(58.361816%, 15.736389%, 89.115906%)" offset="0.789063"/><stop stop-opacity="1" stop-color="rgb(58.639526%, 15.458679%, 89.179993%)" offset="0.796875"/><stop stop-opacity="1" stop-color="rgb(58.918762%, 15.179443%, 89.24408%)" offset="0.804688"/><stop stop-opacity="1" stop-color="rgb(59.196472%, 14.901733%, 89.306641%)" offset="0.8125"/><stop stop-opacity="1" stop-color="rgb(59.474182%, 14.624023%, 89.370728%)" offset="0.820313"/><stop stop-opacity="1" stop-color="rgb(59.753418%, 14.344788%, 89.434814%)" offset="0.828125"/><stop stop-opacity="1" stop-color="rgb(60.031128%, 14.067078%, 89.497375%)" offset="0.835938"/><stop stop-opacity="1" stop-color="rgb(60.308838%, 13.789368%, 89.561462%)" offset="0.84375"/><stop stop-opacity="1" stop-color="rgb(60.588074%, 13.510132%, 89.625549%)" offset="0.851563"/><stop stop-opacity="1" stop-color="rgb(60.865784%, 13.232422%, 89.68811%)" offset="0.859375"/><stop stop-opacity="1" stop-color="rgb(61.143494%, 12.954712%, 89.752197%)" offset="0.867188"/><stop stop-opacity="1" stop-color="rgb(61.422729%, 12.675476%, 89.816284%)" offset="0.875"/><stop stop-opacity="1" stop-color="rgb(61.700439%, 12.397766%, 89.878845%)" offset="0.882812"/><stop stop-opacity="1" stop-color="rgb(61.978149%, 12.120056%, 89.942932%)" offset="0.890625"/><stop stop-opacity="1" stop-color="rgb(62.255859%, 11.84082%, 90.007019%)" offset="0.898438"/><stop stop-opacity="1" stop-color="rgb(62.535095%, 11.56311%, 90.06958%)" offset="0.90625"/><stop stop-opacity="1" stop-color="rgb(62.812805%, 11.2854%, 90.133667%)" offset="0.914062"/><stop stop-opacity="1" stop-color="rgb(63.024902%, 11.071777%, 90.182495%)" offset="0.921875"/><stop stop-opacity="1" stop-color="rgb(63.09967%, 10.998535%, 90.19928%)" offset="0.9375"/><stop stop-opacity="1" stop-color="rgb(63.09967%, 10.998535%, 90.19928%)" offset="1"/></linearGradient></defs><g clip-path="url(#id3)"><g clip-path="url(#id4)"><path fill="url(#id5)" d="M 1.230469 5.6875 L 1.230469 23.105469 L 16.429688 23.105469 L 16.429688 5.6875 Z M 1.230469 5.6875 " fill-rule="nonzero"/></g></g><g fill="rgb(88.238525%, 88.238525%, 88.238525%)" fill-opacity="1"><g transform="translate(17.219294, 17.404266)"><g><path d="M 0.71875 -1.21875 C 0.71875 -1.53125 0.796875 -1.785156 0.953125 -1.984375 C 1.117188 -2.191406 1.34375 -2.351562 1.625 -2.46875 C 1.914062 -2.59375 2.257812 -2.675781 2.65625 -2.71875 C 3.050781 -2.769531 3.484375 -2.796875 3.953125 -2.796875 C 4.421875 -2.796875 4.847656 -2.773438 5.234375 -2.734375 C 5.628906 -2.703125 5.96875 -2.628906 6.25 -2.515625 C 6.539062 -2.410156 6.765625 -2.253906 6.921875 -2.046875 C 7.078125 -1.835938 7.15625 -1.5625 7.15625 -1.21875 C 7.15625 -0.882812 7.078125 -0.613281 6.921875 -0.40625 C 6.765625 -0.207031 6.539062 -0.0507812 6.25 0.0625 C 5.96875 0.175781 5.628906 0.25 5.234375 0.28125 C 4.847656 0.320312 4.421875 0.34375 3.953125 0.34375 C 3.484375 0.34375 3.050781 0.320312 2.65625 0.28125 C 2.257812 0.25 1.914062 0.175781 1.625 0.0625 C 1.34375 -0.0507812 1.117188 -0.207031 0.953125 -0.40625 C 0.796875 -0.613281 0.71875 -0.882812 0.71875 -1.21875 Z M 4.046875 -4.671875 C 4.171875 -4.535156 4.289062 -4.390625 4.40625 -4.234375 C 4.519531 -4.085938 4.597656 -3.941406 4.640625 -3.796875 C 4.648438 -3.722656 4.644531 -3.648438 4.625 -3.578125 C 4.613281 -3.503906 4.578125 -3.4375 4.515625 -3.375 C 4.421875 -3.3125 4.316406 -3.28125 4.203125 -3.28125 C 4.066406 -3.28125 3.9375 -3.3125 3.8125 -3.375 C 3.695312 -3.4375 3.601562 -3.5 3.53125 -3.5625 C 3.414062 -3.65625 3.3125 -3.753906 3.21875 -3.859375 C 3.125 -3.972656 3.03125 -4.078125 2.9375 -4.171875 C 2.863281 -4.253906 2.78125 -4.335938 2.6875 -4.421875 C 2.601562 -4.503906 2.523438 -4.59375 2.453125 -4.6875 L 1.453125 -3.578125 C 1.335938 -3.460938 1.21875 -3.378906 1.09375 -3.328125 C 0.976562 -3.285156 0.863281 -3.265625 0.75 -3.265625 C 0.71875 -3.265625 0.664062 -3.273438 0.59375 -3.296875 C 0.46875 -3.328125 0.382812 -3.382812 0.34375 -3.46875 C 0.300781 -3.550781 0.285156 -3.640625 0.296875 -3.734375 C 0.304688 -3.828125 0.332031 -3.910156 0.375 -3.984375 C 0.425781 -4.066406 0.476562 -4.140625 0.53125 -4.203125 C 0.59375 -4.273438 0.65625 -4.347656 0.71875 -4.421875 C 0.894531 -4.617188 1.066406 -4.820312 1.234375 -5.03125 C 1.398438 -5.25 1.578125 -5.460938 1.765625 -5.671875 L 1.765625 -6.21875 C 1.710938 -6.21875 1.644531 -6.21875 1.5625 -6.21875 C 1.488281 -6.21875 1.390625 -6.21875 1.265625 -6.21875 C 1.191406 -6.21875 1.109375 -6.210938 1.015625 -6.203125 C 0.921875 -6.203125 0.828125 -6.207031 0.734375 -6.21875 C 0.640625 -6.238281 0.554688 -6.269531 0.484375 -6.3125 C 0.410156 -6.351562 0.351562 -6.425781 0.3125 -6.53125 C 0.28125 -6.601562 0.257812 -6.6875 0.25 -6.78125 C 0.25 -6.875 0.257812 -6.960938 0.28125 -7.046875 C 0.300781 -7.140625 0.351562 -7.203125 0.4375 -7.234375 C 0.519531 -7.273438 0.597656 -7.304688 0.671875 -7.328125 C 0.742188 -7.335938 0.804688 -7.34375 0.859375 -7.34375 C 0.878906 -7.34375 0.898438 -7.335938 0.921875 -7.328125 C 0.941406 -7.328125 0.960938 -7.328125 0.984375 -7.328125 L 1.796875 -7.328125 C 1.816406 -7.484375 1.847656 -7.628906 1.890625 -7.765625 C 1.941406 -7.910156 2.046875 -8.007812 2.203125 -8.0625 C 2.316406 -8.101562 2.421875 -8.113281 2.515625 -8.09375 C 2.617188 -8.070312 2.707031 -8.03125 2.78125 -7.96875 C 2.851562 -7.914062 2.910156 -7.835938 2.953125 -7.734375 C 3.003906 -7.640625 3.039062 -7.546875 3.0625 -7.453125 C 3.0625 -7.429688 3.0625 -7.410156 3.0625 -7.390625 C 3.070312 -7.367188 3.078125 -7.347656 3.078125 -7.328125 L 3.65625 -7.328125 C 3.894531 -7.328125 4.082031 -7.3125 4.21875 -7.28125 C 4.363281 -7.257812 4.484375 -7.179688 4.578125 -7.046875 C 4.609375 -7.003906 4.628906 -6.945312 4.640625 -6.875 C 4.660156 -6.800781 4.664062 -6.726562 4.65625 -6.65625 C 4.644531 -6.582031 4.625 -6.515625 4.59375 -6.453125 C 4.5625 -6.390625 4.53125 -6.347656 4.5 -6.328125 C 4.4375 -6.304688 4.375 -6.28125 4.3125 -6.25 C 4.25 -6.226562 4.191406 -6.21875 4.140625 -6.21875 C 4.054688 -6.21875 3.976562 -6.21875 3.90625 -6.21875 C 3.84375 -6.21875 3.773438 -6.21875 3.703125 -6.21875 C 3.578125 -6.21875 3.476562 -6.21875 3.40625 -6.21875 C 3.34375 -6.21875 3.265625 -6.21875 3.171875 -6.21875 C 3.171875 -6.132812 3.171875 -6.078125 3.171875 -6.046875 C 3.171875 -6.023438 3.171875 -6.003906 3.171875 -5.984375 C 3.171875 -5.960938 3.171875 -5.929688 3.171875 -5.890625 C 3.171875 -5.859375 3.171875 -5.785156 3.171875 -5.671875 C 3.203125 -5.640625 3.242188 -5.582031 3.296875 -5.5 C 3.347656 -5.414062 3.40625 -5.347656 3.46875 -5.296875 C 3.519531 -5.242188 3.578125 -5.179688 3.640625 -5.109375 C 3.703125 -5.046875 3.765625 -4.976562 3.828125 -4.90625 C 3.878906 -4.863281 3.921875 -4.820312 3.953125 -4.78125 C 3.984375 -4.738281 4.015625 -4.703125 4.046875 -4.671875 Z M 7.15625 -3.875 C 7.15625 -3.875 7.148438 -3.847656 7.140625 -3.796875 C 7.128906 -3.753906 7.113281 -3.703125 7.09375 -3.640625 C 7.070312 -3.578125 7.039062 -3.515625 7 -3.453125 C 6.96875 -3.390625 6.914062 -3.335938 6.84375 -3.296875 C 6.75 -3.234375 6.65625 -3.203125 6.5625 -3.203125 C 6.445312 -3.203125 6.332031 -3.242188 6.21875 -3.328125 C 6.144531 -3.378906 6.085938 -3.445312 6.046875 -3.53125 C 5.992188 -3.632812 5.957031 -3.742188 5.9375 -3.859375 C 5.925781 -3.984375 5.914062 -4.109375 5.90625 -4.234375 C 5.90625 -4.367188 5.90625 -4.5 5.90625 -4.625 C 5.914062 -4.75 5.921875 -4.867188 5.921875 -4.984375 C 5.929688 -5.285156 5.9375 -5.578125 5.9375 -5.859375 C 5.9375 -6.148438 5.9375 -6.4375 5.9375 -6.71875 L 5.9375 -6.859375 C 5.925781 -6.929688 5.921875 -7.007812 5.921875 -7.09375 C 5.929688 -7.175781 5.945312 -7.253906 5.96875 -7.328125 C 6 -7.429688 6.0625 -7.539062 6.15625 -7.65625 C 6.207031 -7.726562 6.28125 -7.78125 6.375 -7.8125 C 6.476562 -7.84375 6.585938 -7.847656 6.703125 -7.828125 C 6.910156 -7.796875 7.046875 -7.707031 7.109375 -7.5625 C 7.148438 -7.476562 7.164062 -7.367188 7.15625 -7.234375 C 7.15625 -7.109375 7.15625 -7.035156 7.15625 -7.015625 Z M 5.78125 -1.21875 C 5.78125 -1.332031 5.726562 -1.421875 5.625 -1.484375 C 5.519531 -1.554688 5.382812 -1.609375 5.21875 -1.640625 C 5.050781 -1.679688 4.859375 -1.707031 4.640625 -1.71875 C 4.421875 -1.726562 4.191406 -1.734375 3.953125 -1.734375 C 3.710938 -1.734375 3.484375 -1.726562 3.265625 -1.71875 C 3.046875 -1.707031 2.851562 -1.679688 2.6875 -1.640625 C 2.519531 -1.609375 2.390625 -1.554688 2.296875 -1.484375 C 2.203125 -1.421875 2.15625 -1.332031 2.15625 -1.21875 C 2.15625 -1.113281 2.203125 -1.023438 2.296875 -0.953125 C 2.390625 -0.890625 2.519531 -0.84375 2.6875 -0.8125 C 2.851562 -0.78125 3.046875 -0.753906 3.265625 -0.734375 C 3.484375 -0.722656 3.710938 -0.71875 3.953125 -0.71875 C 4.191406 -0.71875 4.421875 -0.71875 4.640625 -0.71875 C 4.859375 -0.71875 5.050781 -0.734375 5.21875 -0.765625 C 5.382812 -0.796875 5.519531 -0.84375 5.625 -0.90625 C 5.726562 -0.976562 5.78125 -1.082031 5.78125 -1.21875 Z M 5.78125 -1.21875 "/></g></g></g><g fill="rgb(88.238525%, 88.238525%, 88.238525%)" fill-opacity="1"><g transform="translate(25.125826, 17.404266)"><g><path d="M 4.046875 -4.671875 C 4.171875 -4.535156 4.289062 -4.394531 4.40625 -4.25 C 4.519531 -4.101562 4.597656 -3.953125 4.640625 -3.796875 C 4.648438 -3.734375 4.644531 -3.660156 4.625 -3.578125 C 4.613281 -3.503906 4.578125 -3.441406 4.515625 -3.390625 C 4.421875 -3.328125 4.316406 -3.296875 4.203125 -3.296875 C 4.066406 -3.296875 3.9375 -3.320312 3.8125 -3.375 C 3.695312 -3.4375 3.601562 -3.5 3.53125 -3.5625 C 3.414062 -3.664062 3.3125 -3.769531 3.21875 -3.875 C 3.125 -3.976562 3.03125 -4.082031 2.9375 -4.1875 C 2.863281 -4.269531 2.78125 -4.347656 2.6875 -4.421875 C 2.601562 -4.503906 2.523438 -4.597656 2.453125 -4.703125 L 1.453125 -3.59375 C 1.335938 -3.46875 1.21875 -3.382812 1.09375 -3.34375 C 0.976562 -3.300781 0.863281 -3.28125 0.75 -3.28125 C 0.71875 -3.28125 0.664062 -3.285156 0.59375 -3.296875 C 0.46875 -3.335938 0.382812 -3.398438 0.34375 -3.484375 C 0.300781 -3.554688 0.285156 -3.640625 0.296875 -3.734375 C 0.304688 -3.828125 0.332031 -3.914062 0.375 -4 C 0.425781 -4.070312 0.476562 -4.140625 0.53125 -4.203125 C 0.59375 -4.273438 0.65625 -4.351562 0.71875 -4.4375 C 0.894531 -4.632812 1.066406 -4.835938 1.234375 -5.046875 C 1.398438 -5.265625 1.578125 -5.472656 1.765625 -5.671875 L 1.765625 -6.234375 C 1.710938 -6.222656 1.644531 -6.21875 1.5625 -6.21875 C 1.488281 -6.226562 1.390625 -6.234375 1.265625 -6.234375 C 1.191406 -6.234375 1.109375 -6.226562 1.015625 -6.21875 C 0.921875 -6.21875 0.828125 -6.222656 0.734375 -6.234375 C 0.640625 -6.242188 0.554688 -6.269531 0.484375 -6.3125 C 0.410156 -6.363281 0.351562 -6.441406 0.3125 -6.546875 C 0.28125 -6.617188 0.257812 -6.703125 0.25 -6.796875 C 0.25 -6.890625 0.257812 -6.976562 0.28125 -7.0625 C 0.300781 -7.15625 0.351562 -7.21875 0.4375 -7.25 C 0.519531 -7.289062 0.597656 -7.316406 0.671875 -7.328125 C 0.742188 -7.347656 0.804688 -7.359375 0.859375 -7.359375 C 0.878906 -7.359375 0.898438 -7.351562 0.921875 -7.34375 C 0.941406 -7.34375 0.960938 -7.34375 0.984375 -7.34375 L 1.796875 -7.34375 C 1.816406 -7.5 1.847656 -7.644531 1.890625 -7.78125 C 1.941406 -7.925781 2.046875 -8.023438 2.203125 -8.078125 C 2.316406 -8.117188 2.421875 -8.128906 2.515625 -8.109375 C 2.617188 -8.085938 2.707031 -8.046875 2.78125 -7.984375 C 2.851562 -7.921875 2.910156 -7.84375 2.953125 -7.75 C 3.003906 -7.65625 3.039062 -7.554688 3.0625 -7.453125 C 3.0625 -7.429688 3.0625 -7.410156 3.0625 -7.390625 C 3.070312 -7.378906 3.078125 -7.363281 3.078125 -7.34375 L 3.65625 -7.34375 C 3.894531 -7.34375 4.082031 -7.328125 4.21875 -7.296875 C 4.363281 -7.265625 4.484375 -7.179688 4.578125 -7.046875 C 4.609375 -7.003906 4.628906 -6.945312 4.640625 -6.875 C 4.660156 -6.8125 4.664062 -6.742188 4.65625 -6.671875 C 4.644531 -6.597656 4.625 -6.53125 4.59375 -6.46875 C 4.5625 -6.40625 4.53125 -6.363281 4.5 -6.34375 C 4.4375 -6.320312 4.375 -6.296875 4.3125 -6.265625 C 4.25 -6.242188 4.191406 -6.234375 4.140625 -6.234375 C 4.054688 -6.222656 3.976562 -6.21875 3.90625 -6.21875 C 3.84375 -6.226562 3.773438 -6.234375 3.703125 -6.234375 C 3.578125 -6.234375 3.476562 -6.226562 3.40625 -6.21875 C 3.34375 -6.21875 3.265625 -6.222656 3.171875 -6.234375 C 3.171875 -6.148438 3.171875 -6.09375 3.171875 -6.0625 C 3.171875 -6.039062 3.171875 -6.019531 3.171875 -6 C 3.171875 -5.976562 3.171875 -5.945312 3.171875 -5.90625 C 3.171875 -5.863281 3.171875 -5.785156 3.171875 -5.671875 C 3.203125 -5.648438 3.242188 -5.597656 3.296875 -5.515625 C 3.347656 -5.429688 3.40625 -5.363281 3.46875 -5.3125 C 3.519531 -5.25 3.578125 -5.1875 3.640625 -5.125 C 3.703125 -5.0625 3.765625 -4.992188 3.828125 -4.921875 C 3.878906 -4.867188 3.921875 -4.820312 3.953125 -4.78125 C 3.984375 -4.75 4.015625 -4.710938 4.046875 -4.671875 Z M 2.171875 0.28125 C 1.890625 0.28125 1.664062 0.21875 1.5 0.09375 C 1.332031 -0.0195312 1.25 -0.15625 1.25 -0.3125 L 1.25 -1.78125 C 1.226562 -1.925781 1.226562 -2.078125 1.25 -2.234375 C 1.257812 -2.378906 1.3125 -2.492188 1.40625 -2.578125 C 1.507812 -2.671875 1.640625 -2.71875 1.796875 -2.71875 C 1.828125 -2.71875 1.882812 -2.710938 1.96875 -2.703125 C 2.0625 -2.703125 2.125 -2.695312 2.15625 -2.6875 C 2.25 -2.664062 2.316406 -2.625 2.359375 -2.5625 C 2.410156 -2.507812 2.453125 -2.445312 2.484375 -2.375 C 2.515625 -2.300781 2.53125 -2.222656 2.53125 -2.140625 C 2.539062 -2.066406 2.550781 -1.992188 2.5625 -1.921875 C 2.5625 -1.898438 2.5625 -1.835938 2.5625 -1.734375 C 2.5625 -1.640625 2.5625 -1.535156 2.5625 -1.421875 C 2.570312 -1.304688 2.578125 -1.203125 2.578125 -1.109375 C 2.585938 -1.015625 2.59375 -0.957031 2.59375 -0.9375 C 2.613281 -0.925781 2.671875 -0.914062 2.765625 -0.90625 C 2.859375 -0.894531 3.03125 -0.890625 3.28125 -0.890625 C 3.5 -0.890625 3.632812 -0.894531 3.6875 -0.90625 C 3.738281 -0.914062 3.765625 -0.921875 3.765625 -0.921875 L 7.09375 -0.921875 C 7.09375 -0.921875 7.113281 -0.910156 7.15625 -0.890625 C 7.207031 -0.878906 7.257812 -0.859375 7.3125 -0.828125 C 7.363281 -0.796875 7.410156 -0.753906 7.453125 -0.703125 C 7.503906 -0.648438 7.539062 -0.59375 7.5625 -0.53125 C 7.59375 -0.269531 7.546875 -0.0664062 7.421875 0.078125 C 7.335938 0.171875 7.25 0.226562 7.15625 0.25 C 7.0625 0.269531 7.015625 0.28125 7.015625 0.28125 Z M 7.34375 -4.734375 L 7.34375 -3.796875 C 7.332031 -3.722656 7.320312 -3.644531 7.3125 -3.5625 C 7.300781 -3.488281 7.273438 -3.414062 7.234375 -3.34375 C 7.179688 -3.25 7.125 -3.179688 7.0625 -3.140625 C 6.945312 -3.066406 6.832031 -3.03125 6.71875 -3.03125 C 6.625 -3.03125 6.53125 -3.0625 6.4375 -3.125 C 6.375 -3.15625 6.320312 -3.203125 6.28125 -3.265625 C 6.238281 -3.328125 6.203125 -3.382812 6.171875 -3.4375 C 6.148438 -3.5 6.132812 -3.550781 6.125 -3.59375 C 6.125 -3.632812 6.125 -3.65625 6.125 -3.65625 L 6.125 -7.015625 C 6.125 -7.046875 6.128906 -7.117188 6.140625 -7.234375 C 6.148438 -7.359375 6.175781 -7.460938 6.21875 -7.546875 C 6.28125 -7.691406 6.414062 -7.773438 6.625 -7.796875 C 6.75 -7.804688 6.859375 -7.796875 6.953125 -7.765625 C 7.046875 -7.742188 7.125 -7.703125 7.1875 -7.640625 C 7.226562 -7.585938 7.253906 -7.535156 7.265625 -7.484375 C 7.285156 -7.429688 7.300781 -7.378906 7.3125 -7.328125 C 7.332031 -7.253906 7.34375 -7.179688 7.34375 -7.109375 C 7.351562 -7.035156 7.351562 -6.960938 7.34375 -6.890625 L 7.34375 -5.875 C 7.375 -5.875 7.425781 -5.867188 7.5 -5.859375 C 7.570312 -5.847656 7.648438 -5.84375 7.734375 -5.84375 C 7.816406 -5.84375 7.894531 -5.835938 7.96875 -5.828125 C 8.050781 -5.816406 8.101562 -5.8125 8.125 -5.8125 C 8.257812 -5.78125 8.351562 -5.738281 8.40625 -5.6875 C 8.46875 -5.632812 8.507812 -5.570312 8.53125 -5.5 C 8.539062 -5.425781 8.546875 -5.335938 8.546875 -5.234375 C 8.546875 -5.140625 8.523438 -5.054688 8.484375 -4.984375 C 8.398438 -4.847656 8.273438 -4.769531 8.109375 -4.75 C 7.953125 -4.738281 7.773438 -4.734375 7.578125 -4.734375 Z M 7.34375 -4.734375 "/></g></g></g><g fill="rgb(88.238525%, 88.238525%, 88.238525%)" fill-opacity="1"><g transform="translate(33.959531, 17.404266)"><g><path d="M 2.515625 -7.859375 C 2.609375 -7.859375 2.691406 -7.851562 2.765625 -7.84375 C 2.847656 -7.84375 2.929688 -7.835938 3.015625 -7.828125 C 3.273438 -7.785156 3.503906 -7.664062 3.703125 -7.46875 C 3.859375 -7.289062 3.988281 -7.085938 4.09375 -6.859375 C 4.207031 -6.628906 4.289062 -6.390625 4.34375 -6.140625 C 4.40625 -5.890625 4.445312 -5.632812 4.46875 -5.375 C 4.5 -5.113281 4.523438 -4.859375 4.546875 -4.609375 C 4.554688 -4.296875 4.554688 -3.984375 4.546875 -3.671875 C 4.546875 -3.359375 4.53125 -3.050781 4.5 -2.75 C 4.457031 -2.425781 4.40625 -2.101562 4.34375 -1.78125 C 4.28125 -1.457031 4.164062 -1.171875 4 -0.921875 C 3.851562 -0.703125 3.671875 -0.519531 3.453125 -0.375 C 3.242188 -0.238281 3.023438 -0.148438 2.796875 -0.109375 C 2.585938 -0.0664062 2.375 -0.0546875 2.15625 -0.078125 C 1.9375 -0.109375 1.726562 -0.179688 1.53125 -0.296875 C 1.351562 -0.398438 1.203125 -0.535156 1.078125 -0.703125 C 0.953125 -0.867188 0.84375 -1.054688 0.75 -1.265625 C 0.613281 -1.597656 0.535156 -1.9375 0.515625 -2.28125 C 0.484375 -2.5625 0.460938 -2.84375 0.453125 -3.125 C 0.441406 -3.414062 0.4375 -3.707031 0.4375 -4 C 0.4375 -4.375 0.457031 -4.753906 0.5 -5.140625 C 0.507812 -5.296875 0.519531 -5.445312 0.53125 -5.59375 C 0.550781 -5.75 0.570312 -5.898438 0.59375 -6.046875 C 0.625 -6.171875 0.648438 -6.285156 0.671875 -6.390625 C 0.691406 -6.503906 0.726562 -6.617188 0.78125 -6.734375 C 0.832031 -6.847656 0.890625 -6.957031 0.953125 -7.0625 C 1.023438 -7.164062 1.101562 -7.253906 1.1875 -7.328125 C 1.34375 -7.484375 1.507812 -7.597656 1.6875 -7.671875 C 1.875 -7.753906 2.066406 -7.8125 2.265625 -7.84375 C 2.304688 -7.851562 2.347656 -7.859375 2.390625 -7.859375 C 2.429688 -7.859375 2.472656 -7.859375 2.515625 -7.859375 Z M 7.453125 -0.578125 C 7.441406 -0.492188 7.429688 -0.410156 7.421875 -0.328125 C 7.421875 -0.253906 7.40625 -0.175781 7.375 -0.09375 C 7.363281 -0.0625 7.351562 -0.0351562 7.34375 -0.015625 C 7.332031 0.00390625 7.320312 0.0234375 7.3125 0.046875 C 7.269531 0.140625 7.207031 0.21875 7.125 0.28125 C 6.96875 0.375 6.796875 0.394531 6.609375 0.34375 C 6.503906 0.320312 6.414062 0.28125 6.34375 0.21875 C 6.28125 0.164062 6.234375 0.0976562 6.203125 0.015625 C 6.171875 -0.0664062 6.144531 -0.148438 6.125 -0.234375 C 6.113281 -0.316406 6.109375 -0.390625 6.109375 -0.453125 C 6.109375 -0.515625 6.109375 -0.546875 6.109375 -0.546875 L 6.109375 -6.71875 C 6.109375 -6.789062 6.109375 -6.875 6.109375 -6.96875 C 6.109375 -7.070312 6.113281 -7.171875 6.125 -7.265625 C 6.144531 -7.359375 6.164062 -7.445312 6.1875 -7.53125 C 6.21875 -7.613281 6.257812 -7.675781 6.3125 -7.71875 C 6.382812 -7.789062 6.457031 -7.835938 6.53125 -7.859375 C 6.613281 -7.878906 6.707031 -7.890625 6.8125 -7.890625 C 6.925781 -7.890625 7.03125 -7.851562 7.125 -7.78125 C 7.226562 -7.71875 7.296875 -7.628906 7.328125 -7.515625 C 7.390625 -7.367188 7.425781 -7.21875 7.4375 -7.0625 C 7.445312 -6.90625 7.453125 -6.75 7.453125 -6.59375 L 7.453125 -6.546875 C 7.472656 -6.023438 7.476562 -5.488281 7.46875 -4.9375 C 7.457031 -4.382812 7.453125 -3.863281 7.453125 -3.375 L 7.453125 -0.9375 C 7.453125 -0.875 7.453125 -0.8125 7.453125 -0.75 C 7.460938 -0.6875 7.460938 -0.628906 7.453125 -0.578125 Z M 2.484375 -1.453125 C 2.609375 -1.453125 2.734375 -1.492188 2.859375 -1.578125 C 2.972656 -1.660156 3.050781 -1.769531 3.09375 -1.90625 C 3.144531 -2.039062 3.191406 -2.191406 3.234375 -2.359375 C 3.285156 -2.671875 3.3125 -3 3.3125 -3.34375 C 3.320312 -3.695312 3.320312 -4.039062 3.3125 -4.375 C 3.3125 -4.5 3.304688 -4.632812 3.296875 -4.78125 C 3.296875 -4.925781 3.285156 -5.070312 3.265625 -5.21875 C 3.242188 -5.363281 3.21875 -5.5 3.1875 -5.625 C 3.15625 -5.757812 3.109375 -5.878906 3.046875 -5.984375 C 2.972656 -6.097656 2.890625 -6.1875 2.796875 -6.25 C 2.703125 -6.3125 2.601562 -6.332031 2.5 -6.3125 C 2.382812 -6.300781 2.273438 -6.257812 2.171875 -6.1875 C 2.078125 -6.125 2.003906 -6.023438 1.953125 -5.890625 L 1.859375 -5.671875 C 1.816406 -5.546875 1.785156 -5.410156 1.765625 -5.265625 C 1.742188 -5.128906 1.726562 -4.992188 1.71875 -4.859375 C 1.695312 -4.722656 1.679688 -4.582031 1.671875 -4.4375 C 1.671875 -4.300781 1.671875 -4.164062 1.671875 -4.03125 C 1.679688 -3.882812 1.679688 -3.75 1.671875 -3.625 C 1.660156 -3.5 1.660156 -3.367188 1.671875 -3.234375 C 1.679688 -3.054688 1.695312 -2.863281 1.71875 -2.65625 C 1.75 -2.457031 1.789062 -2.265625 1.84375 -2.078125 C 1.894531 -1.898438 1.972656 -1.75 2.078125 -1.625 C 2.179688 -1.507812 2.316406 -1.453125 2.484375 -1.453125 Z M 2.484375 -1.453125 "/></g></g></g><g fill="rgb(88.238525%, 88.238525%, 88.238525%)" fill-opacity="1"><g transform="translate(42.304176, 17.404266)"><g/></g></g><g fill="rgb(88.238525%, 88.238525%, 88.238525%)" fill-opacity="1"><g transform="translate(45.177499, 17.404266)"><g><path d="M 7.09375 -0.515625 C 7.207031 -0.503906 7.304688 -0.472656 7.390625 -0.421875 C 7.472656 -0.378906 7.53125 -0.304688 7.5625 -0.203125 C 7.632812 0.046875 7.546875 0.21875 7.296875 0.3125 C 7.210938 0.34375 7.128906 0.359375 7.046875 0.359375 C 6.960938 0.367188 6.882812 0.375 6.8125 0.375 L 2.078125 0.375 C 1.941406 0.375 1.796875 0.375 1.640625 0.375 C 1.492188 0.375 1.347656 0.367188 1.203125 0.359375 C 1.015625 0.359375 0.882812 0.300781 0.8125 0.1875 C 0.75 0.0820312 0.707031 -0.046875 0.6875 -0.203125 L 0.65625 -0.875 C 0.644531 -0.945312 0.644531 -1.035156 0.65625 -1.140625 C 0.664062 -1.242188 0.703125 -1.335938 0.765625 -1.421875 C 0.859375 -1.515625 0.960938 -1.570312 1.078125 -1.59375 C 1.203125 -1.625 1.34375 -1.640625 1.5 -1.640625 L 1.8125 -1.640625 C 1.84375 -1.640625 1.867188 -1.632812 1.890625 -1.625 C 1.910156 -1.625 1.929688 -1.625 1.953125 -1.625 L 6.390625 -1.625 L 6.390625 -1.984375 L 1.859375 -1.984375 C 1.816406 -1.984375 1.773438 -1.984375 1.734375 -1.984375 C 1.703125 -1.992188 1.664062 -1.992188 1.625 -1.984375 L 1.390625 -1.984375 C 1.316406 -1.984375 1.253906 -1.984375 1.203125 -1.984375 C 1.148438 -1.984375 1.097656 -1.988281 1.046875 -2 C 0.984375 -2.019531 0.925781 -2.035156 0.875 -2.046875 C 0.820312 -2.054688 0.78125 -2.09375 0.75 -2.15625 C 0.707031 -2.226562 0.675781 -2.296875 0.65625 -2.359375 C 0.644531 -2.429688 0.65625 -2.507812 0.6875 -2.59375 C 0.707031 -2.644531 0.734375 -2.6875 0.765625 -2.71875 C 0.804688 -2.75 0.851562 -2.773438 0.90625 -2.796875 C 0.96875 -2.816406 1.023438 -2.832031 1.078125 -2.84375 C 1.128906 -2.851562 1.175781 -2.859375 1.21875 -2.859375 C 1.269531 -2.867188 1.320312 -2.875 1.375 -2.875 C 1.425781 -2.882812 1.476562 -2.890625 1.53125 -2.890625 L 1.703125 -2.890625 C 1.734375 -2.878906 1.765625 -2.875 1.796875 -2.875 C 1.828125 -2.875 1.859375 -2.875 1.890625 -2.875 L 6.5 -2.875 C 6.84375 -2.875 7.101562 -2.820312 7.28125 -2.71875 C 7.46875 -2.613281 7.5625 -2.441406 7.5625 -2.203125 L 7.5625 -1.484375 C 7.5625 -1.390625 7.539062 -1.296875 7.5 -1.203125 C 7.457031 -1.117188 7.382812 -1.046875 7.28125 -0.984375 C 7.1875 -0.921875 7.09375 -0.890625 7 -0.890625 C 6.914062 -0.890625 6.832031 -0.890625 6.75 -0.890625 L 1.90625 -0.890625 L 1.90625 -0.515625 Z M 0.984375 -3.65625 C 0.847656 -3.65625 0.703125 -3.675781 0.546875 -3.71875 C 0.398438 -3.757812 0.300781 -3.847656 0.25 -3.984375 C 0.207031 -4.078125 0.191406 -4.191406 0.203125 -4.328125 C 0.210938 -4.460938 0.257812 -4.566406 0.34375 -4.640625 C 0.394531 -4.679688 0.453125 -4.707031 0.515625 -4.71875 C 0.585938 -4.726562 0.65625 -4.734375 0.71875 -4.734375 C 0.757812 -4.734375 0.800781 -4.726562 0.84375 -4.71875 C 0.894531 -4.71875 0.941406 -4.71875 0.984375 -4.71875 C 1.015625 -4.71875 1.035156 -4.71875 1.046875 -4.71875 C 1.066406 -4.71875 1.078125 -4.734375 1.078125 -4.765625 C 1.085938 -4.835938 1.085938 -4.910156 1.078125 -4.984375 C 1.078125 -5.054688 1.078125 -5.128906 1.078125 -5.203125 L 1.078125 -5.75 C 1.078125 -5.820312 1.078125 -5.894531 1.078125 -5.96875 C 1.085938 -6.050781 1.09375 -6.128906 1.09375 -6.203125 C 1.09375 -6.210938 1.09375 -6.234375 1.09375 -6.265625 C 1.09375 -6.296875 1.09375 -6.320312 1.09375 -6.34375 C 1.09375 -6.375 1.09375 -6.40625 1.09375 -6.4375 C 1.09375 -6.46875 1.09375 -6.484375 1.09375 -6.484375 C 1.039062 -6.484375 0.988281 -6.484375 0.9375 -6.484375 C 0.882812 -6.484375 0.832031 -6.488281 0.78125 -6.5 C 0.644531 -6.507812 0.535156 -6.539062 0.453125 -6.59375 C 0.378906 -6.65625 0.328125 -6.753906 0.296875 -6.890625 C 0.285156 -6.960938 0.28125 -7.035156 0.28125 -7.109375 C 0.28125 -7.179688 0.296875 -7.25 0.328125 -7.3125 C 0.378906 -7.414062 0.46875 -7.484375 0.59375 -7.515625 C 0.675781 -7.546875 0.757812 -7.554688 0.84375 -7.546875 C 0.9375 -7.535156 1.03125 -7.535156 1.125 -7.546875 C 1.238281 -7.554688 1.347656 -7.5625 1.453125 -7.5625 C 1.554688 -7.5625 1.664062 -7.5625 1.78125 -7.5625 C 1.894531 -7.570312 2 -7.578125 2.09375 -7.578125 C 2.195312 -7.578125 2.304688 -7.578125 2.421875 -7.578125 L 4.265625 -7.578125 C 4.359375 -7.578125 4.445312 -7.570312 4.53125 -7.5625 C 4.625 -7.550781 4.71875 -7.53125 4.8125 -7.5 C 4.957031 -7.445312 5.054688 -7.34375 5.109375 -7.1875 C 5.160156 -7.09375 5.175781 -6.988281 5.15625 -6.875 C 5.132812 -6.769531 5.078125 -6.6875 4.984375 -6.625 C 4.859375 -6.550781 4.722656 -6.515625 4.578125 -6.515625 C 4.429688 -6.523438 4.289062 -6.523438 4.15625 -6.515625 C 4.164062 -6.421875 4.171875 -6.296875 4.171875 -6.140625 C 4.171875 -5.984375 4.175781 -5.820312 4.1875 -5.65625 C 4.195312 -5.488281 4.203125 -5.320312 4.203125 -5.15625 C 4.203125 -4.988281 4.203125 -4.851562 4.203125 -4.75 C 4.273438 -4.75 4.347656 -4.75 4.421875 -4.75 C 4.503906 -4.75 4.582031 -4.75 4.65625 -4.75 C 4.738281 -4.75 4.816406 -4.738281 4.890625 -4.71875 C 4.960938 -4.707031 5.03125 -4.675781 5.09375 -4.625 C 5.1875 -4.550781 5.234375 -4.4375 5.234375 -4.28125 C 5.234375 -4.125 5.195312 -3.992188 5.125 -3.890625 C 5.0625 -3.816406 4.988281 -3.765625 4.90625 -3.734375 C 4.832031 -3.703125 4.753906 -3.675781 4.671875 -3.65625 C 4.585938 -3.644531 4.5 -3.640625 4.40625 -3.640625 C 4.320312 -3.648438 4.238281 -3.65625 4.15625 -3.65625 Z M 7.578125 -3.875 C 7.578125 -3.875 7.570312 -3.847656 7.5625 -3.796875 C 7.5625 -3.753906 7.550781 -3.703125 7.53125 -3.640625 C 7.507812 -3.578125 7.476562 -3.515625 7.4375 -3.453125 C 7.394531 -3.390625 7.34375 -3.335938 7.28125 -3.296875 C 7.175781 -3.234375 7.078125 -3.203125 6.984375 -3.203125 C 6.867188 -3.203125 6.757812 -3.242188 6.65625 -3.328125 C 6.582031 -3.378906 6.523438 -3.445312 6.484375 -3.53125 C 6.421875 -3.632812 6.378906 -3.742188 6.359375 -3.859375 C 6.347656 -3.984375 6.34375 -4.109375 6.34375 -4.234375 C 6.34375 -4.367188 6.34375 -4.5 6.34375 -4.625 C 6.351562 -4.75 6.359375 -4.867188 6.359375 -4.984375 C 6.359375 -5.285156 6.359375 -5.578125 6.359375 -5.859375 C 6.359375 -6.148438 6.359375 -6.4375 6.359375 -6.71875 L 6.359375 -6.859375 C 6.359375 -6.929688 6.359375 -7.007812 6.359375 -7.09375 C 6.359375 -7.175781 6.367188 -7.253906 6.390625 -7.328125 C 6.421875 -7.429688 6.484375 -7.539062 6.578125 -7.65625 C 6.628906 -7.726562 6.703125 -7.78125 6.796875 -7.8125 C 6.898438 -7.84375 7.007812 -7.847656 7.125 -7.828125 C 7.332031 -7.796875 7.46875 -7.707031 7.53125 -7.5625 C 7.570312 -7.476562 7.59375 -7.367188 7.59375 -7.234375 C 7.59375 -7.109375 7.585938 -7.035156 7.578125 -7.015625 Z M 3.09375 -4.84375 C 3.09375 -4.882812 3.09375 -4.925781 3.09375 -4.96875 C 3.09375 -5.007812 3.09375 -5.050781 3.09375 -5.09375 L 3.09375 -5.71875 C 3.09375 -5.820312 3.09375 -5.914062 3.09375 -6 C 3.09375 -6.09375 3.09375 -6.1875 3.09375 -6.28125 C 3.09375 -6.332031 3.085938 -6.375 3.078125 -6.40625 C 3.066406 -6.4375 3.035156 -6.460938 2.984375 -6.484375 C 2.941406 -6.503906 2.894531 -6.515625 2.84375 -6.515625 C 2.800781 -6.515625 2.753906 -6.515625 2.703125 -6.515625 C 2.648438 -6.515625 2.59375 -6.515625 2.53125 -6.515625 C 2.46875 -6.515625 2.410156 -6.507812 2.359375 -6.5 C 2.328125 -6.488281 2.300781 -6.484375 2.28125 -6.484375 C 2.257812 -6.492188 2.238281 -6.492188 2.21875 -6.484375 C 2.164062 -6.453125 2.132812 -6.410156 2.125 -6.359375 C 2.125 -6.304688 2.128906 -6.253906 2.140625 -6.203125 C 2.148438 -6.148438 2.148438 -6.09375 2.140625 -6.03125 C 2.140625 -5.976562 2.140625 -5.925781 2.140625 -5.875 L 2.140625 -5 C 2.140625 -4.957031 2.132812 -4.914062 2.125 -4.875 C 2.125 -4.832031 2.144531 -4.789062 2.1875 -4.75 C 2.21875 -4.71875 2.253906 -4.710938 2.296875 -4.734375 C 2.378906 -4.734375 2.460938 -4.726562 2.546875 -4.71875 C 2.628906 -4.71875 2.710938 -4.722656 2.796875 -4.734375 C 2.828125 -4.734375 2.859375 -4.734375 2.890625 -4.734375 C 2.921875 -4.734375 2.953125 -4.734375 2.984375 -4.734375 C 3.023438 -4.742188 3.050781 -4.753906 3.0625 -4.765625 C 3.082031 -4.773438 3.09375 -4.800781 3.09375 -4.84375 Z M 3.09375 -4.84375 "/></g></g></g><g fill="rgb(88.238525%, 88.238525%, 88.238525%)" fill-opacity="1"><g transform="translate(53.410072, 17.404266)"><g><path d="M 7.1875 -1.5 C 7.207031 -1.488281 7.226562 -1.484375 7.25 -1.484375 C 7.269531 -1.492188 7.289062 -1.5 7.3125 -1.5 C 7.425781 -1.488281 7.53125 -1.46875 7.625 -1.4375 C 7.726562 -1.40625 7.828125 -1.34375 7.921875 -1.25 C 8.015625 -1.164062 8.0625 -1.050781 8.0625 -0.90625 C 8.0625 -0.832031 8.050781 -0.753906 8.03125 -0.671875 C 8.007812 -0.585938 7.976562 -0.519531 7.9375 -0.46875 C 7.882812 -0.414062 7.816406 -0.375 7.734375 -0.34375 C 7.660156 -0.320312 7.582031 -0.304688 7.5 -0.296875 C 7.425781 -0.285156 7.359375 -0.28125 7.296875 -0.28125 C 7.242188 -0.28125 7.210938 -0.28125 7.203125 -0.28125 L 1.609375 -0.28125 C 1.578125 -0.28125 1.523438 -0.273438 1.453125 -0.265625 C 1.390625 -0.265625 1.335938 -0.265625 1.296875 -0.265625 C 1.148438 -0.253906 0.992188 -0.253906 0.828125 -0.265625 C 0.671875 -0.273438 0.535156 -0.328125 0.421875 -0.421875 C 0.273438 -0.554688 0.203125 -0.703125 0.203125 -0.859375 C 0.203125 -0.960938 0.234375 -1.066406 0.296875 -1.171875 C 0.359375 -1.285156 0.441406 -1.363281 0.546875 -1.40625 C 0.679688 -1.457031 0.820312 -1.484375 0.96875 -1.484375 C 1.113281 -1.484375 1.257812 -1.488281 1.40625 -1.5 L 1.453125 -1.5 C 1.554688 -1.5 1.675781 -1.5 1.8125 -1.5 C 1.957031 -1.5 2.082031 -1.5 2.1875 -1.5 C 2.1875 -1.53125 2.1875 -1.566406 2.1875 -1.609375 L 2.1875 -2.59375 C 2.1875 -2.65625 2.191406 -2.71875 2.203125 -2.78125 C 2.222656 -2.832031 2.25 -2.882812 2.28125 -2.9375 C 2.3125 -3 2.359375 -3.0625 2.421875 -3.125 C 2.171875 -3.175781 1.9375 -3.265625 1.71875 -3.390625 C 1.5 -3.523438 1.304688 -3.710938 1.140625 -3.953125 C 0.984375 -4.160156 0.878906 -4.382812 0.828125 -4.625 C 0.773438 -4.863281 0.75 -5.113281 0.75 -5.375 C 0.75 -5.894531 0.890625 -6.332031 1.171875 -6.6875 C 1.453125 -7.050781 1.835938 -7.3125 2.328125 -7.46875 C 2.660156 -7.570312 2.992188 -7.640625 3.328125 -7.671875 C 3.660156 -7.703125 4 -7.707031 4.34375 -7.6875 C 4.613281 -7.664062 4.890625 -7.632812 5.171875 -7.59375 C 5.453125 -7.5625 5.722656 -7.488281 5.984375 -7.375 C 6.097656 -7.320312 6.207031 -7.253906 6.3125 -7.171875 C 6.425781 -7.097656 6.53125 -7.015625 6.625 -6.921875 C 6.863281 -6.660156 7.023438 -6.378906 7.109375 -6.078125 C 7.203125 -5.785156 7.234375 -5.46875 7.203125 -5.125 C 7.160156 -4.59375 7.003906 -4.164062 6.734375 -3.84375 C 6.460938 -3.53125 6.125 -3.304688 5.71875 -3.171875 C 5.789062 -3.128906 5.847656 -3.070312 5.890625 -3 C 5.941406 -2.9375 5.972656 -2.859375 5.984375 -2.765625 C 5.984375 -2.648438 5.984375 -2.476562 5.984375 -2.25 C 5.992188 -2.03125 6 -1.78125 6 -1.5 L 6.40625 -1.5 C 6.53125 -1.488281 6.664062 -1.488281 6.8125 -1.5 C 6.957031 -1.507812 7.082031 -1.507812 7.1875 -1.5 Z M 5.875 -4.96875 C 5.894531 -5.0625 5.898438 -5.144531 5.890625 -5.21875 C 5.878906 -5.570312 5.769531 -5.835938 5.5625 -6.015625 C 5.351562 -6.191406 5.082031 -6.300781 4.75 -6.34375 C 4.5625 -6.351562 4.328125 -6.367188 4.046875 -6.390625 C 3.773438 -6.421875 3.503906 -6.414062 3.234375 -6.375 C 2.960938 -6.332031 2.722656 -6.25 2.515625 -6.125 C 2.316406 -6 2.195312 -5.800781 2.15625 -5.53125 C 2.132812 -5.363281 2.132812 -5.207031 2.15625 -5.0625 C 2.1875 -4.914062 2.242188 -4.785156 2.328125 -4.671875 C 2.421875 -4.554688 2.546875 -4.457031 2.703125 -4.375 C 2.859375 -4.289062 3.054688 -4.238281 3.296875 -4.21875 C 3.535156 -4.1875 3.78125 -4.160156 4.03125 -4.140625 C 4.28125 -4.117188 4.519531 -4.132812 4.75 -4.1875 C 4.875 -4.207031 4.992188 -4.234375 5.109375 -4.265625 C 5.222656 -4.304688 5.332031 -4.359375 5.4375 -4.421875 C 5.539062 -4.484375 5.628906 -4.554688 5.703125 -4.640625 C 5.773438 -4.734375 5.832031 -4.84375 5.875 -4.96875 Z M 4.5 -2.984375 C 4.320312 -2.984375 4.132812 -2.976562 3.9375 -2.96875 C 3.738281 -2.96875 3.546875 -2.976562 3.359375 -3 C 3.398438 -2.914062 3.425781 -2.835938 3.4375 -2.765625 C 3.4375 -2.648438 3.4375 -2.476562 3.4375 -2.25 C 3.445312 -2.03125 3.453125 -1.78125 3.453125 -1.5 L 4.734375 -1.5 C 4.734375 -1.519531 4.734375 -1.554688 4.734375 -1.609375 L 4.734375 -2.59375 C 4.734375 -2.632812 4.738281 -2.679688 4.75 -2.734375 C 4.757812 -2.765625 4.769531 -2.800781 4.78125 -2.84375 C 4.800781 -2.894531 4.828125 -2.945312 4.859375 -3 C 4.796875 -2.988281 4.734375 -2.984375 4.671875 -2.984375 C 4.609375 -2.984375 4.550781 -2.984375 4.5 -2.984375 Z M 4.5 -2.984375 "/></g></g></g><g fill="rgb(88.238525%, 88.238525%, 88.238525%)" fill-opacity="1"><g transform="translate(61.90755, 17.404266)"><g><path d="M 3.65625 -7.046875 C 3.757812 -7.046875 3.875 -7.03125 4 -7 C 4.09375 -6.96875 4.171875 -6.882812 4.234375 -6.75 C 4.285156 -6.570312 4.265625 -6.394531 4.171875 -6.21875 C 4.140625 -6.1875 4.101562 -6.15625 4.0625 -6.125 C 4.03125 -6.09375 4 -6.066406 3.96875 -6.046875 C 3.925781 -6.023438 3.875 -6.007812 3.8125 -6 C 3.757812 -5.988281 3.707031 -5.984375 3.65625 -5.984375 C 3.601562 -5.960938 3.550781 -5.953125 3.5 -5.953125 C 3.457031 -5.953125 3.398438 -5.960938 3.328125 -5.984375 L 3 -5.984375 L 1.0625 -6.015625 C 0.925781 -6.015625 0.8125 -6.023438 0.71875 -6.046875 C 0.625 -6.078125 0.550781 -6.113281 0.5 -6.15625 C 0.445312 -6.207031 0.40625 -6.265625 0.375 -6.328125 C 0.34375 -6.398438 0.320312 -6.484375 0.3125 -6.578125 C 0.3125 -6.691406 0.363281 -6.804688 0.46875 -6.921875 C 0.519531 -6.972656 0.570312 -7.003906 0.625 -7.015625 C 0.6875 -7.035156 0.753906 -7.046875 0.828125 -7.046875 L 1.5625 -7.046875 C 1.644531 -7.046875 1.6875 -7.054688 1.6875 -7.078125 C 1.6875 -7.109375 1.691406 -7.128906 1.703125 -7.140625 C 1.710938 -7.160156 1.71875 -7.175781 1.71875 -7.1875 L 1.71875 -7.296875 C 1.71875 -7.367188 1.722656 -7.429688 1.734375 -7.484375 C 1.753906 -7.535156 1.773438 -7.582031 1.796875 -7.625 C 1.816406 -7.664062 1.847656 -7.703125 1.890625 -7.734375 C 1.929688 -7.773438 1.976562 -7.8125 2.03125 -7.84375 C 2.082031 -7.863281 2.140625 -7.878906 2.203125 -7.890625 C 2.265625 -7.898438 2.328125 -7.898438 2.390625 -7.890625 C 2.460938 -7.878906 2.523438 -7.859375 2.578125 -7.828125 C 2.628906 -7.796875 2.664062 -7.753906 2.6875 -7.703125 C 2.726562 -7.648438 2.75 -7.597656 2.75 -7.546875 C 2.757812 -7.535156 2.765625 -7.515625 2.765625 -7.484375 C 2.773438 -7.460938 2.78125 -7.4375 2.78125 -7.40625 C 2.800781 -7.351562 2.800781 -7.300781 2.78125 -7.25 C 2.78125 -7.21875 2.78125 -7.1875 2.78125 -7.15625 C 2.78125 -7.125 2.785156 -7.085938 2.796875 -7.046875 Z M 2.609375 -5.59375 C 2.753906 -5.582031 2.882812 -5.550781 3 -5.5 C 3.113281 -5.457031 3.234375 -5.394531 3.359375 -5.3125 C 3.453125 -5.238281 3.539062 -5.148438 3.625 -5.046875 C 3.707031 -4.941406 3.785156 -4.820312 3.859375 -4.6875 C 3.953125 -4.457031 4.023438 -4.164062 4.078125 -3.8125 C 4.117188 -3.644531 4.144531 -3.476562 4.15625 -3.3125 C 4.164062 -3.15625 4.171875 -2.992188 4.171875 -2.828125 C 4.171875 -2.648438 4.160156 -2.476562 4.140625 -2.3125 C 4.128906 -2.15625 4.101562 -2.003906 4.0625 -1.859375 C 4.039062 -1.691406 4.007812 -1.535156 3.96875 -1.390625 C 3.925781 -1.253906 3.878906 -1.128906 3.828125 -1.015625 C 3.753906 -0.878906 3.675781 -0.757812 3.59375 -0.65625 C 3.507812 -0.5625 3.398438 -0.472656 3.265625 -0.390625 C 3.023438 -0.253906 2.769531 -0.175781 2.5 -0.15625 C 2.226562 -0.132812 1.957031 -0.175781 1.6875 -0.28125 C 1.425781 -0.363281 1.210938 -0.523438 1.046875 -0.765625 C 0.910156 -0.953125 0.800781 -1.148438 0.71875 -1.359375 C 0.632812 -1.578125 0.582031 -1.804688 0.5625 -2.046875 C 0.550781 -2.171875 0.535156 -2.289062 0.515625 -2.40625 C 0.503906 -2.53125 0.5 -2.648438 0.5 -2.765625 C 0.5 -2.878906 0.5 -2.988281 0.5 -3.09375 C 0.507812 -3.195312 0.519531 -3.304688 0.53125 -3.421875 C 0.53125 -3.535156 0.539062 -3.644531 0.5625 -3.75 C 0.582031 -3.851562 0.609375 -3.960938 0.640625 -4.078125 C 0.765625 -4.566406 0.992188 -4.945312 1.328125 -5.21875 C 1.660156 -5.5 2.085938 -5.625 2.609375 -5.59375 Z M 2.53125 -1.28125 C 2.644531 -1.300781 2.742188 -1.359375 2.828125 -1.453125 C 2.867188 -1.503906 2.90625 -1.554688 2.9375 -1.609375 C 2.976562 -1.671875 3.015625 -1.734375 3.046875 -1.796875 C 3.078125 -1.878906 3.097656 -1.957031 3.109375 -2.03125 C 3.128906 -2.101562 3.144531 -2.171875 3.15625 -2.234375 C 3.164062 -2.316406 3.171875 -2.394531 3.171875 -2.46875 C 3.179688 -2.539062 3.1875 -2.609375 3.1875 -2.671875 L 3.1875 -3.078125 C 3.175781 -3.148438 3.164062 -3.21875 3.15625 -3.28125 C 3.144531 -3.351562 3.132812 -3.425781 3.125 -3.5 C 3.113281 -3.570312 3.097656 -3.640625 3.078125 -3.703125 C 3.066406 -3.773438 3.046875 -3.835938 3.015625 -3.890625 C 2.984375 -3.941406 2.953125 -3.992188 2.921875 -4.046875 C 2.898438 -4.109375 2.867188 -4.160156 2.828125 -4.203125 C 2.785156 -4.222656 2.742188 -4.238281 2.703125 -4.25 C 2.660156 -4.269531 2.613281 -4.285156 2.5625 -4.296875 C 2.5 -4.304688 2.441406 -4.304688 2.390625 -4.296875 C 2.335938 -4.285156 2.285156 -4.273438 2.234375 -4.265625 C 2.179688 -4.253906 2.128906 -4.238281 2.078125 -4.21875 C 2.023438 -4.207031 1.972656 -4.179688 1.921875 -4.140625 C 1.859375 -4.085938 1.796875 -4.003906 1.734375 -3.890625 C 1.640625 -3.609375 1.59375 -3.335938 1.59375 -3.078125 C 1.59375 -2.921875 1.59375 -2.769531 1.59375 -2.625 C 1.601562 -2.488281 1.625 -2.34375 1.65625 -2.1875 C 1.664062 -2.113281 1.679688 -2.035156 1.703125 -1.953125 C 1.734375 -1.878906 1.765625 -1.800781 1.796875 -1.71875 C 1.816406 -1.65625 1.847656 -1.585938 1.890625 -1.515625 C 1.929688 -1.453125 1.976562 -1.398438 2.03125 -1.359375 C 2.050781 -1.347656 2.066406 -1.335938 2.078125 -1.328125 C 2.085938 -1.328125 2.113281 -1.316406 2.15625 -1.296875 C 2.164062 -1.296875 2.179688 -1.296875 2.203125 -1.296875 C 2.222656 -1.296875 2.25 -1.289062 2.28125 -1.28125 Z M 7.6875 -0.8125 C 7.707031 -0.71875 7.710938 -0.617188 7.703125 -0.515625 C 7.691406 -0.421875 7.679688 -0.328125 7.671875 -0.234375 C 7.648438 -0.0859375 7.59375 0.03125 7.5 0.125 C 7.414062 0.21875 7.316406 0.269531 7.203125 0.28125 C 7.097656 0.300781 6.992188 0.273438 6.890625 0.203125 C 6.785156 0.140625 6.707031 0.03125 6.65625 -0.125 C 6.613281 -0.25 6.59375 -0.367188 6.59375 -0.484375 C 6.582031 -0.535156 6.578125 -0.585938 6.578125 -0.640625 C 6.578125 -0.703125 6.578125 -0.757812 6.578125 -0.8125 L 6.578125 -3.171875 L 5.90625 -3.171875 L 5.90625 -0.765625 C 5.914062 -0.671875 5.914062 -0.582031 5.90625 -0.5 C 5.90625 -0.425781 5.90625 -0.34375 5.90625 -0.25 C 5.894531 -0.164062 5.875 -0.0820312 5.84375 0 C 5.8125 0.0703125 5.765625 0.128906 5.703125 0.171875 C 5.648438 0.222656 5.582031 0.257812 5.5 0.28125 C 5.425781 0.3125 5.332031 0.3125 5.21875 0.28125 C 5.101562 0.238281 5.007812 0.160156 4.9375 0.046875 C 4.863281 -0.0546875 4.820312 -0.164062 4.8125 -0.28125 C 4.789062 -0.375 4.78125 -0.457031 4.78125 -0.53125 C 4.78125 -0.613281 4.78125 -0.695312 4.78125 -0.78125 L 4.78125 -7.109375 C 4.78125 -7.210938 4.800781 -7.320312 4.84375 -7.4375 C 4.90625 -7.550781 4.960938 -7.640625 5.015625 -7.703125 C 5.066406 -7.785156 5.144531 -7.84375 5.25 -7.875 C 5.332031 -7.882812 5.40625 -7.878906 5.46875 -7.859375 C 5.539062 -7.847656 5.597656 -7.816406 5.640625 -7.765625 C 5.671875 -7.710938 5.703125 -7.660156 5.734375 -7.609375 C 5.765625 -7.554688 5.796875 -7.5 5.828125 -7.4375 C 5.835938 -7.363281 5.847656 -7.289062 5.859375 -7.21875 C 5.867188 -7.15625 5.875 -7.082031 5.875 -7 C 5.894531 -6.90625 5.90625 -6.816406 5.90625 -6.734375 C 5.90625 -6.660156 5.90625 -6.578125 5.90625 -6.484375 L 5.90625 -4.40625 L 6.578125 -4.40625 L 6.578125 -7.046875 C 6.578125 -7.097656 6.578125 -7.15625 6.578125 -7.21875 C 6.578125 -7.289062 6.582031 -7.351562 6.59375 -7.40625 C 6.613281 -7.53125 6.671875 -7.628906 6.765625 -7.703125 C 6.828125 -7.785156 6.925781 -7.84375 7.0625 -7.875 C 7.144531 -7.875 7.210938 -7.863281 7.265625 -7.84375 C 7.328125 -7.820312 7.378906 -7.785156 7.421875 -7.734375 C 7.460938 -7.703125 7.5 -7.65625 7.53125 -7.59375 C 7.570312 -7.539062 7.597656 -7.476562 7.609375 -7.40625 C 7.617188 -7.332031 7.628906 -7.257812 7.640625 -7.1875 C 7.660156 -7.125 7.675781 -7.050781 7.6875 -6.96875 C 7.6875 -6.894531 7.691406 -6.816406 7.703125 -6.734375 C 7.710938 -6.660156 7.71875 -6.578125 7.71875 -6.484375 C 7.707031 -6.421875 7.695312 -6.359375 7.6875 -6.296875 C 7.6875 -6.234375 7.6875 -6.175781 7.6875 -6.125 Z M 7.6875 -0.8125 "/></g></g></g></svg>