<svg xmlns="http://www.w3.org/2000/svg" xmlns:xlink="http://www.w3.org/1999/xlink" width="current" zoomAndPan="magnify" viewBox="0 0 104.88 30.000001" height="current" preserveAspectRatio="xMidYMid meet" version="1.0"><defs><g><g id="id1"/><g id="id2"/></g><clipPath id="id3"><path d="M 1.632812 0.761719 L 25.585938 0.761719 L 25.585938 28.34375 L 1.632812 28.34375 Z M 1.632812 0.761719 " clip-rule="nonzero"/></clipPath><clipPath id="id4"><path d="M 13.203125 10.070312 C 13.203125 6.851562 14.324219 3.886719 16.195312 1.542969 C 16.449219 1.230469 16.222656 0.769531 15.820312 0.765625 C 15.761719 0.761719 15.703125 0.761719 15.640625 0.761719 C 7.96875 0.761719 1.742188 6.894531 1.703125 14.46875 C 1.667969 22.027344 7.855469 28.234375 15.503906 28.304688 C 19.289062 28.34375 22.730469 26.886719 25.261719 24.5 C 25.550781 24.226562 25.398438 23.738281 25 23.679688 C 18.320312 22.660156 13.203125 16.957031 13.203125 10.070312 " clip-rule="nonzero"/></clipPath><linearGradient x1="-0.151297" gradientTransform="matrix(23.70692, 0, 0, 27.543766, 1.704915, 0.763156)" y1="0.23985" x2="1.023319" gradientUnits="userSpaceOnUse" y2="0.973437" xlink:type="simple" xlink:actuate="onLoad" id="id5" xlink:show="other"><stop stop-opacity="1" stop-color="rgb(25.498962%, 65.499878%, 93.699646%)" offset="0"/><stop stop-opacity="1" stop-color="rgb(25.498962%, 65.499878%, 93.699646%)" offset="0.125"/><stop stop-opacity="1" stop-color="rgb(25.498962%, 65.499878%, 93.699646%)" offset="0.140625"/><stop stop-opacity="1" stop-color="rgb(25.531006%, 65.444946%, 93.690491%)" offset="0.148438"/><stop stop-opacity="1" stop-color="rgb(25.799561%, 65.000916%, 93.6203%)" offset="0.152344"/><stop stop-opacity="1" stop-color="rgb(26.034546%, 64.613342%, 93.559265%)" offset="0.15625"/><stop stop-opacity="1" stop-color="rgb(26.268005%, 64.224243%, 93.496704%)" offset="0.160156"/><stop stop-opacity="1" stop-color="rgb(26.502991%, 63.835144%, 93.435669%)" offset="0.164062"/><stop stop-opacity="1" stop-color="rgb(26.737976%, 63.446045%, 93.373108%)" offset="0.167969"/><stop stop-opacity="1" stop-color="rgb(26.972961%, 63.056946%, 93.312073%)" offset="0.171875"/><stop stop-opacity="1" stop-color="rgb(27.206421%, 62.667847%, 93.249512%)" offset="0.175781"/><stop stop-opacity="1" stop-color="rgb(27.441406%, 62.280273%, 93.188477%)" offset="0.179688"/><stop stop-opacity="1" stop-color="rgb(27.676392%, 61.891174%, 93.125916%)" offset="0.183594"/><stop stop-opacity="1" stop-color="rgb(27.911377%, 61.502075%, 93.06488%)" offset="0.1875"/><stop stop-opacity="1" stop-color="rgb(28.144836%, 61.112976%, 93.002319%)" offset="0.191406"/><stop stop-opacity="1" stop-color="rgb(28.379822%, 60.725403%, 92.941284%)" offset="0.195313"/><stop stop-opacity="1" stop-color="rgb(28.614807%, 60.336304%, 92.878723%)" offset="0.199219"/><stop stop-opacity="1" stop-color="rgb(28.849792%, 59.947205%, 92.817688%)" offset="0.203125"/><stop stop-opacity="1" stop-color="rgb(29.083252%, 59.558105%, 92.756653%)" offset="0.207031"/><stop stop-opacity="1" stop-color="rgb(29.318237%, 59.169006%, 92.695618%)" offset="0.210938"/><stop stop-opacity="1" stop-color="rgb(29.553223%, 58.779907%, 92.633057%)" offset="0.214844"/><stop stop-opacity="1" stop-color="rgb(29.788208%, 58.392334%, 92.572021%)" offset="0.21875"/><stop stop-opacity="1" stop-color="rgb(30.021667%, 58.003235%, 92.50946%)" offset="0.222656"/><stop stop-opacity="1" stop-color="rgb(30.256653%, 57.614136%, 92.448425%)" offset="0.226562"/><stop stop-opacity="1" stop-color="rgb(30.491638%, 57.225037%, 92.385864%)" offset="0.230469"/><stop stop-opacity="1" stop-color="rgb(30.726624%, 56.835938%, 92.324829%)" offset="0.234375"/><stop stop-opacity="1" stop-color="rgb(30.960083%, 56.446838%, 92.262268%)" offset="0.238281"/><stop stop-opacity="1" stop-color="rgb(31.195068%, 56.059265%, 92.201233%)" offset="0.242188"/><stop stop-opacity="1" stop-color="rgb(31.430054%, 55.670166%, 92.138672%)" offset="0.246094"/><stop stop-opacity="1" stop-color="rgb(31.665039%, 55.281067%, 92.077637%)" offset="0.25"/><stop stop-opacity="1" stop-color="rgb(31.898499%, 54.891968%, 92.015076%)" offset="0.253906"/><stop stop-opacity="1" stop-color="rgb(32.133484%, 54.504395%, 91.954041%)" offset="0.257813"/><stop stop-opacity="1" stop-color="rgb(32.366943%, 54.115295%, 91.893005%)" offset="0.261719"/><stop stop-opacity="1" stop-color="rgb(32.601929%, 53.726196%, 91.83197%)" offset="0.265625"/><stop stop-opacity="1" stop-color="rgb(32.836914%, 53.337097%, 91.769409%)" offset="0.269531"/><stop stop-opacity="1" stop-color="rgb(33.071899%, 52.947998%, 91.708374%)" offset="0.273438"/><stop stop-opacity="1" stop-color="rgb(33.305359%, 52.558899%, 91.645813%)" offset="0.277344"/><stop stop-opacity="1" stop-color="rgb(33.540344%, 52.171326%, 91.584778%)" offset="0.28125"/><stop stop-opacity="1" stop-color="rgb(33.77533%, 51.782227%, 91.522217%)" offset="0.285156"/><stop stop-opacity="1" stop-color="rgb(34.010315%, 51.393127%, 91.461182%)" offset="0.289063"/><stop stop-opacity="1" stop-color="rgb(34.243774%, 51.004028%, 91.398621%)" offset="0.292969"/><stop stop-opacity="1" stop-color="rgb(34.47876%, 50.616455%, 91.337585%)" offset="0.296875"/><stop stop-opacity="1" stop-color="rgb(34.713745%, 50.227356%, 91.275024%)" offset="0.300781"/><stop stop-opacity="1" stop-color="rgb(34.94873%, 49.838257%, 91.213989%)" offset="0.304688"/><stop stop-opacity="1" stop-color="rgb(35.18219%, 49.449158%, 91.152954%)" offset="0.308594"/><stop stop-opacity="1" stop-color="rgb(35.417175%, 49.060059%, 91.091919%)" offset="0.3125"/><stop stop-opacity="1" stop-color="rgb(35.652161%, 48.670959%, 91.029358%)" offset="0.316406"/><stop stop-opacity="1" stop-color="rgb(35.887146%, 48.283386%, 90.968323%)" offset="0.320312"/><stop stop-opacity="1" stop-color="rgb(36.120605%, 47.894287%, 90.905762%)" offset="0.324219"/><stop stop-opacity="1" stop-color="rgb(36.355591%, 47.505188%, 90.844727%)" offset="0.328125"/><stop stop-opacity="1" stop-color="rgb(36.590576%, 47.116089%, 90.782166%)" offset="0.332031"/><stop stop-opacity="1" stop-color="rgb(36.825562%, 46.72699%, 90.72113%)" offset="0.335938"/><stop stop-opacity="1" stop-color="rgb(37.059021%, 46.337891%, 90.658569%)" offset="0.339844"/><stop stop-opacity="1" stop-color="rgb(37.294006%, 45.950317%, 90.597534%)" offset="0.34375"/><stop stop-opacity="1" stop-color="rgb(37.528992%, 45.561218%, 90.534973%)" offset="0.347656"/><stop stop-opacity="1" stop-color="rgb(37.763977%, 45.172119%, 90.473938%)" offset="0.351562"/><stop stop-opacity="1" stop-color="rgb(37.997437%, 44.78302%, 90.411377%)" offset="0.355469"/><stop stop-opacity="1" stop-color="rgb(38.232422%, 44.395447%, 90.350342%)" offset="0.359375"/><stop stop-opacity="1" stop-color="rgb(38.467407%, 44.006348%, 90.289307%)" offset="0.363281"/><stop stop-opacity="1" stop-color="rgb(38.702393%, 43.617249%, 90.228271%)" offset="0.367188"/><stop stop-opacity="1" stop-color="rgb(38.935852%, 43.228149%, 90.16571%)" offset="0.371094"/><stop stop-opacity="1" stop-color="rgb(39.170837%, 42.83905%, 90.104675%)" offset="0.375"/><stop stop-opacity="1" stop-color="rgb(39.405823%, 42.449951%, 90.042114%)" offset="0.378906"/><stop stop-opacity="1" stop-color="rgb(39.640808%, 42.062378%, 89.981079%)" offset="0.382813"/><stop stop-opacity="1" stop-color="rgb(39.874268%, 41.673279%, 89.918518%)" offset="0.386719"/><stop stop-opacity="1" stop-color="rgb(40.109253%, 41.28418%, 89.857483%)" offset="0.390625"/><stop stop-opacity="1" stop-color="rgb(40.344238%, 40.895081%, 89.794922%)" offset="0.394531"/><stop stop-opacity="1" stop-color="rgb(40.579224%, 40.505981%, 89.733887%)" offset="0.398438"/><stop stop-opacity="1" stop-color="rgb(40.812683%, 40.116882%, 89.671326%)" offset="0.402344"/><stop stop-opacity="1" stop-color="rgb(41.047668%, 39.729309%, 89.610291%)" offset="0.40625"/><stop stop-opacity="1" stop-color="rgb(41.282654%, 39.34021%, 89.547729%)" offset="0.410156"/><stop stop-opacity="1" stop-color="rgb(41.517639%, 38.951111%, 89.486694%)" offset="0.414063"/><stop stop-opacity="1" stop-color="rgb(41.751099%, 38.562012%, 89.425659%)" offset="0.417969"/><stop stop-opacity="1" stop-color="rgb(41.986084%, 38.174438%, 89.364624%)" offset="0.421875"/><stop stop-opacity="1" stop-color="rgb(42.221069%, 37.785339%, 89.302063%)" offset="0.425781"/><stop stop-opacity="1" stop-color="rgb(42.456055%, 37.39624%, 89.241028%)" offset="0.429688"/><stop stop-opacity="1" stop-color="rgb(42.689514%, 37.007141%, 89.178467%)" offset="0.433594"/><stop stop-opacity="1" stop-color="rgb(42.9245%, 36.618042%, 89.117432%)" offset="0.4375"/><stop stop-opacity="1" stop-color="rgb(43.159485%, 36.228943%, 89.054871%)" offset="0.441406"/><stop stop-opacity="1" stop-color="rgb(43.39447%, 35.84137%, 88.993835%)" offset="0.445313"/><stop stop-opacity="1" stop-color="rgb(43.62793%, 35.452271%, 88.931274%)" offset="0.449219"/><stop stop-opacity="1" stop-color="rgb(43.862915%, 35.063171%, 88.870239%)" offset="0.453125"/><stop stop-opacity="1" stop-color="rgb(44.0979%, 34.674072%, 88.807678%)" offset="0.457031"/><stop stop-opacity="1" stop-color="rgb(44.332886%, 34.286499%, 88.746643%)" offset="0.460938"/><stop stop-opacity="1" stop-color="rgb(44.566345%, 33.8974%, 88.684082%)" offset="0.464844"/><stop stop-opacity="1" stop-color="rgb(44.801331%, 33.508301%, 88.623047%)" offset="0.46875"/><stop stop-opacity="1" stop-color="rgb(45.036316%, 33.119202%, 88.562012%)" offset="0.472656"/><stop stop-opacity="1" stop-color="rgb(45.271301%, 32.730103%, 88.500977%)" offset="0.476563"/><stop stop-opacity="1" stop-color="rgb(45.504761%, 32.341003%, 88.438416%)" offset="0.480469"/><stop stop-opacity="1" stop-color="rgb(45.739746%, 31.95343%, 88.37738%)" offset="0.484375"/><stop stop-opacity="1" stop-color="rgb(45.974731%, 31.564331%, 88.314819%)" offset="0.488281"/><stop stop-opacity="1" stop-color="rgb(46.209717%, 31.175232%, 88.253784%)" offset="0.492188"/><stop stop-opacity="1" stop-color="rgb(46.443176%, 30.786133%, 88.191223%)" offset="0.496094"/><stop stop-opacity="1" stop-color="rgb(46.678162%, 30.397034%, 88.130188%)" offset="0.5"/><stop stop-opacity="1" stop-color="rgb(46.913147%, 30.007935%, 88.067627%)" offset="0.503906"/><stop stop-opacity="1" stop-color="rgb(47.148132%, 29.620361%, 88.006592%)" offset="0.507813"/><stop stop-opacity="1" stop-color="rgb(47.381592%, 29.231262%, 87.944031%)" offset="0.511719"/><stop stop-opacity="1" stop-color="rgb(47.616577%, 28.842163%, 87.882996%)" offset="0.515625"/><stop stop-opacity="1" stop-color="rgb(47.851562%, 28.453064%, 87.820435%)" offset="0.519531"/><stop stop-opacity="1" stop-color="rgb(48.086548%, 28.065491%, 87.759399%)" offset="0.523438"/><stop stop-opacity="1" stop-color="rgb(48.320007%, 27.676392%, 87.698364%)" offset="0.527344"/><stop stop-opacity="1" stop-color="rgb(48.554993%, 27.287292%, 87.637329%)" offset="0.53125"/><stop stop-opacity="1" stop-color="rgb(48.789978%, 26.898193%, 87.574768%)" offset="0.535156"/><stop stop-opacity="1" stop-color="rgb(49.024963%, 26.509094%, 87.513733%)" offset="0.539063"/><stop stop-opacity="1" stop-color="rgb(49.258423%, 26.119995%, 87.451172%)" offset="0.542969"/><stop stop-opacity="1" stop-color="rgb(49.493408%, 25.732422%, 87.390137%)" offset="0.546875"/><stop stop-opacity="1" stop-color="rgb(49.728394%, 25.343323%, 87.327576%)" offset="0.550781"/><stop stop-opacity="1" stop-color="rgb(49.963379%, 24.954224%, 87.266541%)" offset="0.554688"/><stop stop-opacity="1" stop-color="rgb(50.196838%, 24.565125%, 87.203979%)" offset="0.558594"/><stop stop-opacity="1" stop-color="rgb(50.431824%, 24.176025%, 87.142944%)" offset="0.5625"/><stop stop-opacity="1" stop-color="rgb(50.604248%, 23.942566%, 87.14447%)" offset="0.566406"/><stop stop-opacity="1" stop-color="rgb(50.776672%, 23.709106%, 87.147522%)" offset="0.570313"/><stop stop-opacity="1" stop-color="rgb(50.914001%, 23.561096%, 87.184143%)" offset="0.578125"/><stop stop-opacity="1" stop-color="rgb(51.18866%, 23.266602%, 87.258911%)" offset="0.585938"/><stop stop-opacity="1" stop-color="rgb(51.463318%, 22.972107%, 87.333679%)" offset="0.59375"/><stop stop-opacity="1" stop-color="rgb(51.737976%, 22.677612%, 87.408447%)" offset="0.601562"/><stop stop-opacity="1" stop-color="rgb(52.012634%, 22.381592%, 87.484741%)" offset="0.609375"/><stop stop-opacity="1" stop-color="rgb(52.287292%, 22.087097%, 87.559509%)" offset="0.617013"/><stop stop-opacity="1" stop-color="rgb(52.424622%, 21.940613%, 87.597656%)" offset="0.617188"/><stop stop-opacity="1" stop-color="rgb(52.561951%, 21.792603%, 87.634277%)" offset="0.625"/><stop stop-opacity="1" stop-color="rgb(52.838135%, 21.498108%, 87.709045%)" offset="0.632812"/><stop stop-opacity="1" stop-color="rgb(53.112793%, 21.202087%, 87.783813%)" offset="0.640625"/><stop stop-opacity="1" stop-color="rgb(53.387451%, 20.907593%, 87.858582%)" offset="0.648438"/><stop stop-opacity="1" stop-color="rgb(53.662109%, 20.613098%, 87.93335%)" offset="0.65625"/><stop stop-opacity="1" stop-color="rgb(53.936768%, 20.318604%, 88.008118%)" offset="0.664062"/><stop stop-opacity="1" stop-color="rgb(54.211426%, 20.022583%, 88.084412%)" offset="0.671875"/><stop stop-opacity="1" stop-color="rgb(54.486084%, 19.728088%, 88.15918%)" offset="0.679688"/><stop stop-opacity="1" stop-color="rgb(54.760742%, 19.433594%, 88.233948%)" offset="0.6875"/><stop stop-opacity="1" stop-color="rgb(55.036926%, 19.139099%, 88.308716%)" offset="0.695312"/><stop stop-opacity="1" stop-color="rgb(55.311584%, 18.844604%, 88.383484%)" offset="0.703125"/><stop stop-opacity="1" stop-color="rgb(55.586243%, 18.548584%, 88.458252%)" offset="0.710938"/><stop stop-opacity="1" stop-color="rgb(55.860901%, 18.254089%, 88.53302%)" offset="0.71875"/><stop stop-opacity="1" stop-color="rgb(56.137085%, 17.965698%, 88.604736%)" offset="0.726562"/><stop stop-opacity="1" stop-color="rgb(56.414795%, 17.683411%, 88.670349%)" offset="0.734375"/><stop stop-opacity="1" stop-color="rgb(56.692505%, 17.405701%, 88.734436%)" offset="0.742188"/><stop stop-opacity="1" stop-color="rgb(56.970215%, 17.127991%, 88.798523%)" offset="0.75"/><stop stop-opacity="1" stop-color="rgb(57.249451%, 16.848755%, 88.861084%)" offset="0.757812"/><stop stop-opacity="1" stop-color="rgb(57.527161%, 16.571045%, 88.925171%)" offset="0.765625"/><stop stop-opacity="1" stop-color="rgb(57.804871%, 16.293335%, 88.989258%)" offset="0.773438"/><stop stop-opacity="1" stop-color="rgb(58.084106%, 16.014099%, 89.053345%)" offset="0.78125"/><stop stop-opacity="1" stop-color="rgb(58.361816%, 15.736389%, 89.115906%)" offset="0.789063"/><stop stop-opacity="1" stop-color="rgb(58.639526%, 15.458679%, 89.179993%)" offset="0.796875"/><stop stop-opacity="1" stop-color="rgb(58.918762%, 15.179443%, 89.24408%)" offset="0.804688"/><stop stop-opacity="1" stop-color="rgb(59.196472%, 14.901733%, 89.306641%)" offset="0.8125"/><stop stop-opacity="1" stop-color="rgb(59.474182%, 14.624023%, 89.370728%)" offset="0.820313"/><stop stop-opacity="1" stop-color="rgb(59.753418%, 14.344788%, 89.434814%)" offset="0.828125"/><stop stop-opacity="1" stop-color="rgb(60.031128%, 14.067078%, 89.497375%)" offset="0.835938"/><stop stop-opacity="1" stop-color="rgb(60.308838%, 13.789368%, 89.561462%)" offset="0.84375"/><stop stop-opacity="1" stop-color="rgb(60.588074%, 13.510132%, 89.625549%)" offset="0.851563"/><stop stop-opacity="1" stop-color="rgb(60.865784%, 13.232422%, 89.68811%)" offset="0.859375"/><stop stop-opacity="1" stop-color="rgb(61.143494%, 12.954712%, 89.752197%)" offset="0.867188"/><stop stop-opacity="1" stop-color="rgb(61.422729%, 12.675476%, 89.816284%)" offset="0.875"/><stop stop-opacity="1" stop-color="rgb(61.700439%, 12.397766%, 89.878845%)" offset="0.882813"/><stop stop-opacity="1" stop-color="rgb(61.978149%, 12.120056%, 89.942932%)" offset="0.890625"/><stop stop-opacity="1" stop-color="rgb(62.255859%, 11.84082%, 90.007019%)" offset="0.898438"/><stop stop-opacity="1" stop-color="rgb(62.535095%, 11.56311%, 90.06958%)" offset="0.90625"/><stop stop-opacity="1" stop-color="rgb(62.812805%, 11.2854%, 90.133667%)" offset="0.914063"/><stop stop-opacity="1" stop-color="rgb(63.024902%, 11.071777%, 90.182495%)" offset="0.921875"/><stop stop-opacity="1" stop-color="rgb(63.09967%, 10.998535%, 90.19928%)" offset="0.9375"/><stop stop-opacity="1" stop-color="rgb(63.09967%, 10.998535%, 90.19928%)" offset="1"/></linearGradient></defs><g clip-path="url(#id3)"><g clip-path="url(#id4)"><path fill="url(#id5)" d="M 1.667969 0.761719 L 1.667969 28.34375 L 25.550781 28.34375 L 25.550781 0.761719 Z M 1.667969 0.761719 " fill-rule="nonzero"/></g></g><g fill="rgb(88.238525%, 88.238525%, 88.238525%)" fill-opacity="1"><g transform="translate(20.805681, 19.014376)"><g><path d="M 1.109375 -1.90625 C 1.109375 -2.382812 1.234375 -2.78125 1.484375 -3.09375 C 1.742188 -3.414062 2.09375 -3.664062 2.53125 -3.84375 C 2.976562 -4.03125 3.507812 -4.160156 4.125 -4.234375 C 4.75 -4.304688 5.425781 -4.34375 6.15625 -4.34375 C 6.882812 -4.34375 7.550781 -4.316406 8.15625 -4.265625 C 8.769531 -4.210938 9.300781 -4.097656 9.75 -3.921875 C 10.195312 -3.753906 10.539062 -3.507812 10.78125 -3.1875 C 11.019531 -2.875 11.140625 -2.445312 11.140625 -1.90625 C 11.140625 -1.375 11.019531 -0.945312 10.78125 -0.625 C 10.539062 -0.3125 10.195312 -0.0703125 9.75 0.09375 C 9.300781 0.269531 8.769531 0.390625 8.15625 0.453125 C 7.550781 0.515625 6.882812 0.546875 6.15625 0.546875 C 5.425781 0.546875 4.75 0.515625 4.125 0.453125 C 3.507812 0.390625 2.976562 0.269531 2.53125 0.09375 C 2.09375 -0.0703125 1.742188 -0.3125 1.484375 -0.625 C 1.234375 -0.945312 1.109375 -1.375 1.109375 -1.90625 Z M 6.3125 -7.265625 C 6.5 -7.054688 6.679688 -6.832031 6.859375 -6.59375 C 7.035156 -6.363281 7.15625 -6.132812 7.21875 -5.90625 C 7.238281 -5.800781 7.238281 -5.6875 7.21875 -5.5625 C 7.195312 -5.445312 7.140625 -5.347656 7.046875 -5.265625 C 6.890625 -5.160156 6.722656 -5.109375 6.546875 -5.109375 C 6.335938 -5.109375 6.140625 -5.15625 5.953125 -5.25 C 5.773438 -5.34375 5.628906 -5.441406 5.515625 -5.546875 C 5.328125 -5.703125 5.160156 -5.859375 5.015625 -6.015625 C 4.867188 -6.179688 4.722656 -6.347656 4.578125 -6.515625 C 4.453125 -6.640625 4.320312 -6.765625 4.1875 -6.890625 C 4.050781 -7.015625 3.929688 -7.148438 3.828125 -7.296875 L 2.25 -5.578125 C 2.082031 -5.390625 1.898438 -5.257812 1.703125 -5.1875 C 1.515625 -5.125 1.335938 -5.09375 1.171875 -5.09375 C 1.117188 -5.09375 1.039062 -5.101562 0.9375 -5.125 C 0.738281 -5.175781 0.601562 -5.269531 0.53125 -5.40625 C 0.457031 -5.53125 0.429688 -5.664062 0.453125 -5.8125 C 0.472656 -5.957031 0.519531 -6.085938 0.59375 -6.203125 C 0.664062 -6.328125 0.742188 -6.441406 0.828125 -6.546875 C 0.921875 -6.660156 1.015625 -6.773438 1.109375 -6.890625 C 1.390625 -7.191406 1.65625 -7.507812 1.90625 -7.84375 C 2.164062 -8.175781 2.453125 -8.503906 2.765625 -8.828125 L 2.765625 -9.703125 C 2.679688 -9.691406 2.570312 -9.6875 2.4375 -9.6875 C 2.3125 -9.695312 2.160156 -9.703125 1.984375 -9.703125 C 1.867188 -9.703125 1.734375 -9.695312 1.578125 -9.6875 C 1.429688 -9.675781 1.285156 -9.679688 1.140625 -9.703125 C 1.003906 -9.722656 0.878906 -9.765625 0.765625 -9.828125 C 0.648438 -9.898438 0.554688 -10.015625 0.484375 -10.171875 C 0.429688 -10.285156 0.398438 -10.414062 0.390625 -10.5625 C 0.378906 -10.71875 0.390625 -10.859375 0.421875 -10.984375 C 0.453125 -11.128906 0.535156 -11.226562 0.671875 -11.28125 C 0.804688 -11.34375 0.929688 -11.390625 1.046875 -11.421875 C 1.148438 -11.441406 1.242188 -11.453125 1.328125 -11.453125 C 1.359375 -11.453125 1.390625 -11.445312 1.421875 -11.4375 C 1.453125 -11.4375 1.488281 -11.4375 1.53125 -11.4375 L 2.8125 -11.4375 C 2.832031 -11.675781 2.878906 -11.90625 2.953125 -12.125 C 3.035156 -12.34375 3.191406 -12.492188 3.421875 -12.578125 C 3.609375 -12.640625 3.773438 -12.65625 3.921875 -12.625 C 4.078125 -12.59375 4.210938 -12.523438 4.328125 -12.421875 C 4.453125 -12.328125 4.550781 -12.207031 4.625 -12.0625 C 4.695312 -11.914062 4.742188 -11.765625 4.765625 -11.609375 C 4.773438 -11.578125 4.78125 -11.546875 4.78125 -11.515625 C 4.789062 -11.492188 4.796875 -11.46875 4.796875 -11.4375 L 5.703125 -11.4375 C 6.066406 -11.4375 6.359375 -11.410156 6.578125 -11.359375 C 6.804688 -11.304688 6.992188 -11.175781 7.140625 -10.96875 C 7.179688 -10.90625 7.210938 -10.816406 7.234375 -10.703125 C 7.253906 -10.597656 7.253906 -10.488281 7.234375 -10.375 C 7.222656 -10.257812 7.195312 -10.15625 7.15625 -10.0625 C 7.113281 -9.96875 7.0625 -9.898438 7 -9.859375 C 6.914062 -9.828125 6.820312 -9.789062 6.71875 -9.75 C 6.625 -9.71875 6.53125 -9.703125 6.4375 -9.703125 C 6.3125 -9.691406 6.195312 -9.6875 6.09375 -9.6875 C 6 -9.695312 5.890625 -9.703125 5.765625 -9.703125 C 5.578125 -9.703125 5.425781 -9.695312 5.3125 -9.6875 C 5.207031 -9.6875 5.082031 -9.691406 4.9375 -9.703125 C 4.9375 -9.566406 4.9375 -9.476562 4.9375 -9.4375 C 4.9375 -9.394531 4.9375 -9.359375 4.9375 -9.328125 C 4.9375 -9.296875 4.9375 -9.25 4.9375 -9.1875 C 4.9375 -9.125 4.9375 -9.003906 4.9375 -8.828125 C 4.988281 -8.785156 5.054688 -8.695312 5.140625 -8.5625 C 5.222656 -8.4375 5.304688 -8.332031 5.390625 -8.25 C 5.484375 -8.164062 5.578125 -8.070312 5.671875 -7.96875 C 5.765625 -7.875 5.863281 -7.769531 5.96875 -7.65625 C 6.039062 -7.582031 6.101562 -7.507812 6.15625 -7.4375 C 6.207031 -7.375 6.257812 -7.316406 6.3125 -7.265625 Z M 11.140625 -6.03125 C 11.140625 -6.03125 11.132812 -5.992188 11.125 -5.921875 C 11.113281 -5.847656 11.09375 -5.765625 11.0625 -5.671875 C 11.03125 -5.578125 10.984375 -5.476562 10.921875 -5.375 C 10.859375 -5.269531 10.773438 -5.1875 10.671875 -5.125 C 10.523438 -5.039062 10.375 -5 10.21875 -5 C 10.039062 -5 9.867188 -5.054688 9.703125 -5.171875 C 9.585938 -5.253906 9.5 -5.367188 9.4375 -5.515625 C 9.34375 -5.671875 9.28125 -5.84375 9.25 -6.03125 C 9.226562 -6.21875 9.210938 -6.410156 9.203125 -6.609375 C 9.203125 -6.816406 9.207031 -7.019531 9.21875 -7.21875 C 9.226562 -7.414062 9.234375 -7.601562 9.234375 -7.78125 C 9.242188 -8.238281 9.25 -8.691406 9.25 -9.140625 C 9.25 -9.585938 9.25 -10.035156 9.25 -10.484375 L 9.25 -10.6875 C 9.238281 -10.800781 9.234375 -10.921875 9.234375 -11.046875 C 9.242188 -11.179688 9.265625 -11.3125 9.296875 -11.4375 C 9.335938 -11.59375 9.4375 -11.757812 9.59375 -11.9375 C 9.675781 -12.039062 9.789062 -12.113281 9.9375 -12.15625 C 10.09375 -12.207031 10.265625 -12.222656 10.453125 -12.203125 C 10.765625 -12.148438 10.972656 -12.015625 11.078125 -11.796875 C 11.140625 -11.660156 11.164062 -11.488281 11.15625 -11.28125 C 11.15625 -11.082031 11.148438 -10.960938 11.140625 -10.921875 Z M 9 -1.90625 C 9 -2.082031 8.921875 -2.222656 8.765625 -2.328125 C 8.609375 -2.441406 8.398438 -2.523438 8.140625 -2.578125 C 7.878906 -2.628906 7.578125 -2.660156 7.234375 -2.671875 C 6.890625 -2.691406 6.53125 -2.703125 6.15625 -2.703125 C 5.789062 -2.703125 5.4375 -2.691406 5.09375 -2.671875 C 4.757812 -2.660156 4.460938 -2.628906 4.203125 -2.578125 C 3.941406 -2.523438 3.734375 -2.441406 3.578125 -2.328125 C 3.421875 -2.222656 3.34375 -2.082031 3.34375 -1.90625 C 3.34375 -1.75 3.421875 -1.613281 3.578125 -1.5 C 3.734375 -1.394531 3.941406 -1.316406 4.203125 -1.265625 C 4.460938 -1.210938 4.757812 -1.175781 5.09375 -1.15625 C 5.4375 -1.132812 5.789062 -1.125 6.15625 -1.125 C 6.53125 -1.125 6.890625 -1.125 7.234375 -1.125 C 7.578125 -1.125 7.878906 -1.144531 8.140625 -1.1875 C 8.398438 -1.226562 8.609375 -1.304688 8.765625 -1.421875 C 8.921875 -1.535156 9 -1.695312 9 -1.90625 Z M 9 -1.90625 "/></g></g></g><g fill="rgb(88.238525%, 88.238525%, 88.238525%)" fill-opacity="1"><g transform="translate(33.120037, 19.014376)"><g><path d="M 6.3125 -7.28125 C 6.5 -7.070312 6.679688 -6.847656 6.859375 -6.609375 C 7.035156 -6.378906 7.15625 -6.148438 7.21875 -5.921875 C 7.238281 -5.816406 7.238281 -5.703125 7.21875 -5.578125 C 7.195312 -5.460938 7.140625 -5.363281 7.046875 -5.28125 C 6.890625 -5.175781 6.722656 -5.125 6.546875 -5.125 C 6.335938 -5.125 6.140625 -5.171875 5.953125 -5.265625 C 5.773438 -5.359375 5.628906 -5.457031 5.515625 -5.5625 C 5.328125 -5.71875 5.160156 -5.875 5.015625 -6.03125 C 4.867188 -6.195312 4.722656 -6.363281 4.578125 -6.53125 C 4.453125 -6.65625 4.320312 -6.78125 4.1875 -6.90625 C 4.050781 -7.03125 3.929688 -7.164062 3.828125 -7.3125 L 2.25 -5.59375 C 2.082031 -5.40625 1.898438 -5.273438 1.703125 -5.203125 C 1.515625 -5.140625 1.335938 -5.109375 1.171875 -5.109375 C 1.117188 -5.109375 1.039062 -5.117188 0.9375 -5.140625 C 0.738281 -5.191406 0.601562 -5.285156 0.53125 -5.421875 C 0.457031 -5.546875 0.429688 -5.679688 0.453125 -5.828125 C 0.472656 -5.972656 0.519531 -6.101562 0.59375 -6.21875 C 0.664062 -6.34375 0.742188 -6.457031 0.828125 -6.5625 C 0.921875 -6.675781 1.015625 -6.789062 1.109375 -6.90625 C 1.390625 -7.207031 1.65625 -7.523438 1.90625 -7.859375 C 2.164062 -8.191406 2.453125 -8.519531 2.765625 -8.84375 L 2.765625 -9.71875 C 2.679688 -9.707031 2.570312 -9.703125 2.4375 -9.703125 C 2.3125 -9.710938 2.160156 -9.71875 1.984375 -9.71875 C 1.867188 -9.71875 1.734375 -9.710938 1.578125 -9.703125 C 1.429688 -9.691406 1.285156 -9.695312 1.140625 -9.71875 C 1.003906 -9.738281 0.878906 -9.78125 0.765625 -9.84375 C 0.648438 -9.914062 0.554688 -10.03125 0.484375 -10.1875 C 0.429688 -10.300781 0.398438 -10.429688 0.390625 -10.578125 C 0.378906 -10.734375 0.390625 -10.875 0.421875 -11 C 0.453125 -11.144531 0.535156 -11.242188 0.671875 -11.296875 C 0.804688 -11.359375 0.929688 -11.40625 1.046875 -11.4375 C 1.148438 -11.457031 1.242188 -11.46875 1.328125 -11.46875 C 1.359375 -11.46875 1.390625 -11.460938 1.421875 -11.453125 C 1.453125 -11.453125 1.488281 -11.453125 1.53125 -11.453125 L 2.8125 -11.453125 C 2.832031 -11.691406 2.878906 -11.921875 2.953125 -12.140625 C 3.035156 -12.359375 3.191406 -12.507812 3.421875 -12.59375 C 3.609375 -12.65625 3.773438 -12.671875 3.921875 -12.640625 C 4.078125 -12.609375 4.210938 -12.539062 4.328125 -12.4375 C 4.453125 -12.34375 4.550781 -12.222656 4.625 -12.078125 C 4.695312 -11.929688 4.742188 -11.78125 4.765625 -11.625 C 4.773438 -11.59375 4.78125 -11.5625 4.78125 -11.53125 C 4.789062 -11.507812 4.796875 -11.484375 4.796875 -11.453125 L 5.703125 -11.453125 C 6.066406 -11.453125 6.359375 -11.425781 6.578125 -11.375 C 6.804688 -11.320312 6.992188 -11.191406 7.140625 -10.984375 C 7.179688 -10.921875 7.210938 -10.832031 7.234375 -10.71875 C 7.253906 -10.613281 7.253906 -10.503906 7.234375 -10.390625 C 7.222656 -10.273438 7.195312 -10.171875 7.15625 -10.078125 C 7.113281 -9.984375 7.0625 -9.914062 7 -9.875 C 6.914062 -9.84375 6.820312 -9.804688 6.71875 -9.765625 C 6.625 -9.734375 6.53125 -9.71875 6.4375 -9.71875 C 6.3125 -9.707031 6.195312 -9.703125 6.09375 -9.703125 C 6 -9.710938 5.890625 -9.71875 5.765625 -9.71875 C 5.578125 -9.71875 5.425781 -9.710938 5.3125 -9.703125 C 5.207031 -9.703125 5.082031 -9.707031 4.9375 -9.71875 C 4.9375 -9.582031 4.9375 -9.492188 4.9375 -9.453125 C 4.9375 -9.410156 4.9375 -9.375 4.9375 -9.34375 C 4.9375 -9.3125 4.9375 -9.265625 4.9375 -9.203125 C 4.9375 -9.140625 4.9375 -9.019531 4.9375 -8.84375 C 4.988281 -8.800781 5.054688 -8.710938 5.140625 -8.578125 C 5.222656 -8.453125 5.304688 -8.347656 5.390625 -8.265625 C 5.484375 -8.179688 5.578125 -8.085938 5.671875 -7.984375 C 5.765625 -7.890625 5.863281 -7.785156 5.96875 -7.671875 C 6.039062 -7.597656 6.101562 -7.523438 6.15625 -7.453125 C 6.207031 -7.390625 6.257812 -7.332031 6.3125 -7.28125 Z M 3.375 0.421875 C 2.945312 0.421875 2.597656 0.328125 2.328125 0.140625 C 2.066406 -0.0351562 1.9375 -0.242188 1.9375 -0.484375 L 1.9375 -2.78125 C 1.914062 -3.007812 1.914062 -3.25 1.9375 -3.5 C 1.957031 -3.71875 2.039062 -3.894531 2.1875 -4.03125 C 2.34375 -4.164062 2.546875 -4.234375 2.796875 -4.234375 C 2.847656 -4.234375 2.941406 -4.226562 3.078125 -4.21875 C 3.210938 -4.21875 3.304688 -4.207031 3.359375 -4.1875 C 3.503906 -4.144531 3.613281 -4.082031 3.6875 -4 C 3.769531 -3.914062 3.832031 -3.816406 3.875 -3.703125 C 3.914062 -3.597656 3.941406 -3.484375 3.953125 -3.359375 C 3.960938 -3.234375 3.972656 -3.113281 3.984375 -3 C 3.984375 -2.957031 3.984375 -2.859375 3.984375 -2.703125 C 3.992188 -2.546875 4 -2.378906 4 -2.203125 C 4.007812 -2.035156 4.015625 -1.878906 4.015625 -1.734375 C 4.023438 -1.585938 4.035156 -1.492188 4.046875 -1.453125 C 4.078125 -1.441406 4.164062 -1.425781 4.3125 -1.40625 C 4.457031 -1.394531 4.722656 -1.390625 5.109375 -1.390625 C 5.453125 -1.390625 5.660156 -1.394531 5.734375 -1.40625 C 5.816406 -1.414062 5.863281 -1.421875 5.875 -1.421875 L 11.0625 -1.421875 C 11.0625 -1.421875 11.09375 -1.410156 11.15625 -1.390625 C 11.226562 -1.367188 11.304688 -1.332031 11.390625 -1.28125 C 11.484375 -1.238281 11.566406 -1.175781 11.640625 -1.09375 C 11.710938 -1.019531 11.757812 -0.929688 11.78125 -0.828125 C 11.832031 -0.421875 11.765625 -0.109375 11.578125 0.109375 C 11.441406 0.253906 11.300781 0.34375 11.15625 0.375 C 11.007812 0.40625 10.929688 0.421875 10.921875 0.421875 Z M 11.453125 -7.359375 L 11.453125 -5.921875 C 11.441406 -5.804688 11.421875 -5.6875 11.390625 -5.5625 C 11.367188 -5.4375 11.328125 -5.316406 11.265625 -5.203125 C 11.191406 -5.066406 11.101562 -4.96875 11 -4.90625 C 10.832031 -4.789062 10.660156 -4.734375 10.484375 -4.734375 C 10.316406 -4.734375 10.164062 -4.773438 10.03125 -4.859375 C 9.925781 -4.921875 9.84375 -5 9.78125 -5.09375 C 9.71875 -5.1875 9.664062 -5.273438 9.625 -5.359375 C 9.59375 -5.453125 9.570312 -5.53125 9.5625 -5.59375 C 9.550781 -5.664062 9.546875 -5.703125 9.546875 -5.703125 L 9.546875 -10.9375 C 9.546875 -10.988281 9.550781 -11.109375 9.5625 -11.296875 C 9.582031 -11.484375 9.625 -11.640625 9.6875 -11.765625 C 9.789062 -11.984375 10.003906 -12.109375 10.328125 -12.140625 C 10.515625 -12.160156 10.679688 -12.148438 10.828125 -12.109375 C 10.984375 -12.066406 11.101562 -12 11.1875 -11.90625 C 11.25 -11.820312 11.289062 -11.738281 11.3125 -11.65625 C 11.34375 -11.582031 11.367188 -11.503906 11.390625 -11.421875 C 11.429688 -11.304688 11.453125 -11.191406 11.453125 -11.078125 C 11.460938 -10.960938 11.460938 -10.847656 11.453125 -10.734375 L 11.453125 -9.140625 C 11.492188 -9.140625 11.570312 -9.132812 11.6875 -9.125 C 11.800781 -9.113281 11.921875 -9.101562 12.046875 -9.09375 C 12.179688 -9.09375 12.304688 -9.085938 12.421875 -9.078125 C 12.546875 -9.066406 12.628906 -9.054688 12.671875 -9.046875 C 12.878906 -9.003906 13.023438 -8.941406 13.109375 -8.859375 C 13.191406 -8.785156 13.25 -8.691406 13.28125 -8.578125 C 13.300781 -8.453125 13.3125 -8.3125 13.3125 -8.15625 C 13.3125 -8.007812 13.28125 -7.882812 13.21875 -7.78125 C 13.09375 -7.570312 12.898438 -7.445312 12.640625 -7.40625 C 12.390625 -7.375 12.113281 -7.359375 11.8125 -7.359375 Z M 11.453125 -7.359375 "/></g></g></g><g fill="rgb(88.238525%, 88.238525%, 88.238525%)" fill-opacity="1"><g transform="translate(46.878456, 19.014376)"><g><path d="M 3.921875 -12.25 C 4.054688 -12.25 4.1875 -12.242188 4.3125 -12.234375 C 4.445312 -12.222656 4.578125 -12.207031 4.703125 -12.1875 C 5.097656 -12.125 5.453125 -11.941406 5.765625 -11.640625 C 6.015625 -11.359375 6.222656 -11.039062 6.390625 -10.6875 C 6.554688 -10.332031 6.6875 -9.957031 6.78125 -9.5625 C 6.875 -9.175781 6.941406 -8.78125 6.984375 -8.375 C 7.023438 -7.96875 7.054688 -7.570312 7.078125 -7.1875 C 7.097656 -6.707031 7.101562 -6.222656 7.09375 -5.734375 C 7.082031 -5.242188 7.050781 -4.757812 7 -4.28125 C 6.945312 -3.789062 6.867188 -3.289062 6.765625 -2.78125 C 6.671875 -2.28125 6.488281 -1.828125 6.21875 -1.421875 C 6 -1.085938 5.722656 -0.8125 5.390625 -0.59375 C 5.066406 -0.375 4.722656 -0.226562 4.359375 -0.15625 C 4.035156 -0.09375 3.703125 -0.0820312 3.359375 -0.125 C 3.023438 -0.164062 2.703125 -0.273438 2.390625 -0.453125 C 2.109375 -0.628906 1.867188 -0.84375 1.671875 -1.09375 C 1.472656 -1.34375 1.300781 -1.640625 1.15625 -1.984375 C 0.945312 -2.492188 0.828125 -3.019531 0.796875 -3.5625 C 0.753906 -4 0.722656 -4.441406 0.703125 -4.890625 C 0.691406 -5.335938 0.6875 -5.78125 0.6875 -6.21875 C 0.6875 -6.8125 0.71875 -7.40625 0.78125 -8 C 0.800781 -8.238281 0.820312 -8.476562 0.84375 -8.71875 C 0.863281 -8.957031 0.894531 -9.195312 0.9375 -9.4375 C 0.976562 -9.625 1.015625 -9.800781 1.046875 -9.96875 C 1.078125 -10.132812 1.132812 -10.3125 1.21875 -10.5 C 1.300781 -10.675781 1.394531 -10.84375 1.5 -11 C 1.601562 -11.15625 1.722656 -11.300781 1.859375 -11.4375 C 2.085938 -11.664062 2.34375 -11.84375 2.625 -11.96875 C 2.914062 -12.09375 3.21875 -12.175781 3.53125 -12.21875 C 3.59375 -12.226562 3.65625 -12.234375 3.71875 -12.234375 C 3.789062 -12.234375 3.859375 -12.238281 3.921875 -12.25 Z M 11.625 -0.890625 C 11.601562 -0.765625 11.585938 -0.640625 11.578125 -0.515625 C 11.566406 -0.390625 11.539062 -0.265625 11.5 -0.140625 C 11.476562 -0.0976562 11.460938 -0.0625 11.453125 -0.03125 C 11.441406 0 11.421875 0.0351562 11.390625 0.078125 C 11.316406 0.222656 11.222656 0.335938 11.109375 0.421875 C 10.867188 0.578125 10.597656 0.617188 10.296875 0.546875 C 10.128906 0.503906 9.992188 0.4375 9.890625 0.34375 C 9.796875 0.257812 9.722656 0.148438 9.671875 0.015625 C 9.628906 -0.109375 9.59375 -0.234375 9.5625 -0.359375 C 9.539062 -0.492188 9.53125 -0.609375 9.53125 -0.703125 C 9.53125 -0.796875 9.53125 -0.847656 9.53125 -0.859375 L 9.53125 -10.46875 C 9.53125 -10.59375 9.53125 -10.726562 9.53125 -10.875 C 9.53125 -11.019531 9.539062 -11.164062 9.5625 -11.3125 C 9.582031 -11.46875 9.613281 -11.609375 9.65625 -11.734375 C 9.695312 -11.859375 9.753906 -11.957031 9.828125 -12.03125 C 9.941406 -12.144531 10.0625 -12.210938 10.1875 -12.234375 C 10.3125 -12.265625 10.453125 -12.28125 10.609375 -12.28125 C 10.785156 -12.28125 10.945312 -12.226562 11.09375 -12.125 C 11.25 -12.03125 11.363281 -11.894531 11.4375 -11.71875 C 11.53125 -11.488281 11.582031 -11.253906 11.59375 -11.015625 C 11.601562 -10.773438 11.613281 -10.53125 11.625 -10.28125 L 11.625 -10.203125 C 11.644531 -9.390625 11.648438 -8.550781 11.640625 -7.6875 C 11.628906 -6.832031 11.625 -6.023438 11.625 -5.265625 L 11.625 -1.453125 C 11.625 -1.359375 11.625 -1.265625 11.625 -1.171875 C 11.632812 -1.078125 11.632812 -0.984375 11.625 -0.890625 Z M 3.875 -2.265625 C 4.070312 -2.265625 4.265625 -2.328125 4.453125 -2.453125 C 4.640625 -2.585938 4.769531 -2.757812 4.84375 -2.96875 C 4.914062 -3.175781 4.976562 -3.410156 5.03125 -3.671875 C 5.113281 -4.148438 5.160156 -4.664062 5.171875 -5.21875 C 5.179688 -5.769531 5.175781 -6.300781 5.15625 -6.8125 C 5.15625 -7.007812 5.148438 -7.222656 5.140625 -7.453125 C 5.128906 -7.679688 5.109375 -7.90625 5.078125 -8.125 C 5.054688 -8.351562 5.019531 -8.566406 4.96875 -8.765625 C 4.914062 -8.972656 4.84375 -9.15625 4.75 -9.3125 C 4.644531 -9.5 4.515625 -9.640625 4.359375 -9.734375 C 4.210938 -9.828125 4.054688 -9.863281 3.890625 -9.84375 C 3.710938 -9.820312 3.546875 -9.757812 3.390625 -9.65625 C 3.242188 -9.550781 3.125 -9.390625 3.03125 -9.171875 L 2.890625 -8.84375 C 2.828125 -8.644531 2.78125 -8.4375 2.75 -8.21875 C 2.71875 -8 2.691406 -7.785156 2.671875 -7.578125 C 2.648438 -7.359375 2.632812 -7.140625 2.625 -6.921875 C 2.613281 -6.703125 2.609375 -6.484375 2.609375 -6.265625 C 2.617188 -6.054688 2.613281 -5.847656 2.59375 -5.640625 C 2.582031 -5.441406 2.585938 -5.238281 2.609375 -5.03125 C 2.628906 -4.757812 2.65625 -4.460938 2.6875 -4.140625 C 2.726562 -3.828125 2.789062 -3.53125 2.875 -3.25 C 2.957031 -2.96875 3.078125 -2.734375 3.234375 -2.546875 C 3.398438 -2.359375 3.613281 -2.265625 3.875 -2.265625 Z M 3.875 -2.265625 "/></g></g></g><g fill="rgb(88.238525%, 88.238525%, 88.238525%)" fill-opacity="1"><g transform="translate(59.87517, 19.014376)"><g/></g></g><g fill="rgb(88.238525%, 88.238525%, 88.238525%)" fill-opacity="1"><g transform="translate(64.350345, 19.014376)"><g><path d="M 11.0625 -0.796875 C 11.226562 -0.785156 11.375 -0.742188 11.5 -0.671875 C 11.632812 -0.609375 11.726562 -0.488281 11.78125 -0.3125 C 11.894531 0.0703125 11.753906 0.332031 11.359375 0.46875 C 11.234375 0.53125 11.101562 0.566406 10.96875 0.578125 C 10.84375 0.585938 10.726562 0.59375 10.625 0.59375 L 3.234375 0.59375 C 3.023438 0.59375 2.800781 0.59375 2.5625 0.59375 C 2.332031 0.59375 2.101562 0.585938 1.875 0.578125 C 1.582031 0.566406 1.378906 0.472656 1.265625 0.296875 C 1.160156 0.128906 1.097656 -0.0703125 1.078125 -0.3125 L 1.015625 -1.359375 C 1.003906 -1.484375 1.003906 -1.625 1.015625 -1.78125 C 1.035156 -1.945312 1.09375 -2.085938 1.1875 -2.203125 C 1.332031 -2.347656 1.5 -2.441406 1.6875 -2.484375 C 1.882812 -2.535156 2.097656 -2.5625 2.328125 -2.5625 L 2.828125 -2.5625 C 2.878906 -2.5625 2.921875 -2.554688 2.953125 -2.546875 C 2.984375 -2.546875 3.015625 -2.546875 3.046875 -2.546875 L 9.96875 -2.546875 L 9.96875 -3.09375 L 2.890625 -3.09375 C 2.835938 -3.09375 2.78125 -3.09375 2.71875 -3.09375 C 2.664062 -3.101562 2.609375 -3.101562 2.546875 -3.09375 L 2.15625 -3.09375 C 2.050781 -3.09375 1.957031 -3.09375 1.875 -3.09375 C 1.789062 -3.09375 1.707031 -3.101562 1.625 -3.125 C 1.519531 -3.144531 1.425781 -3.164062 1.34375 -3.1875 C 1.269531 -3.207031 1.207031 -3.257812 1.15625 -3.34375 C 1.09375 -3.46875 1.050781 -3.582031 1.03125 -3.6875 C 1.007812 -3.789062 1.019531 -3.90625 1.0625 -4.03125 C 1.09375 -4.113281 1.140625 -4.175781 1.203125 -4.21875 C 1.265625 -4.269531 1.335938 -4.3125 1.421875 -4.34375 C 1.515625 -4.375 1.597656 -4.394531 1.671875 -4.40625 C 1.753906 -4.425781 1.828125 -4.441406 1.890625 -4.453125 C 1.972656 -4.472656 2.050781 -4.484375 2.125 -4.484375 C 2.207031 -4.492188 2.289062 -4.5 2.375 -4.5 L 2.65625 -4.5 C 2.707031 -4.488281 2.753906 -4.484375 2.796875 -4.484375 C 2.847656 -4.484375 2.898438 -4.484375 2.953125 -4.484375 L 10.125 -4.484375 C 10.664062 -4.484375 11.078125 -4.398438 11.359375 -4.234375 C 11.648438 -4.066406 11.796875 -3.796875 11.796875 -3.421875 L 11.796875 -2.3125 C 11.796875 -2.164062 11.757812 -2.023438 11.6875 -1.890625 C 11.625 -1.753906 11.503906 -1.632812 11.328125 -1.53125 C 11.191406 -1.4375 11.054688 -1.382812 10.921875 -1.375 C 10.785156 -1.375 10.648438 -1.375 10.515625 -1.375 L 2.96875 -1.375 L 2.96875 -0.796875 Z M 1.53125 -5.703125 C 1.3125 -5.703125 1.085938 -5.734375 0.859375 -5.796875 C 0.628906 -5.859375 0.46875 -5.992188 0.375 -6.203125 C 0.320312 -6.347656 0.300781 -6.523438 0.3125 -6.734375 C 0.332031 -6.953125 0.410156 -7.113281 0.546875 -7.21875 C 0.617188 -7.289062 0.707031 -7.332031 0.8125 -7.34375 C 0.914062 -7.351562 1.015625 -7.359375 1.109375 -7.359375 C 1.179688 -7.359375 1.25 -7.351562 1.3125 -7.34375 C 1.382812 -7.34375 1.460938 -7.34375 1.546875 -7.34375 C 1.585938 -7.34375 1.617188 -7.34375 1.640625 -7.34375 C 1.671875 -7.34375 1.6875 -7.367188 1.6875 -7.421875 C 1.707031 -7.546875 1.710938 -7.660156 1.703125 -7.765625 C 1.691406 -7.878906 1.6875 -7.992188 1.6875 -8.109375 L 1.6875 -8.953125 C 1.6875 -9.066406 1.6875 -9.1875 1.6875 -9.3125 C 1.695312 -9.4375 1.703125 -9.554688 1.703125 -9.671875 C 1.703125 -9.679688 1.703125 -9.707031 1.703125 -9.75 C 1.703125 -9.800781 1.703125 -9.847656 1.703125 -9.890625 C 1.703125 -9.941406 1.703125 -9.988281 1.703125 -10.03125 C 1.703125 -10.070312 1.703125 -10.09375 1.703125 -10.09375 C 1.617188 -10.09375 1.535156 -10.09375 1.453125 -10.09375 C 1.367188 -10.101562 1.285156 -10.113281 1.203125 -10.125 C 1.003906 -10.144531 0.84375 -10.203125 0.71875 -10.296875 C 0.59375 -10.390625 0.503906 -10.539062 0.453125 -10.75 C 0.429688 -10.851562 0.421875 -10.957031 0.421875 -11.0625 C 0.421875 -11.175781 0.453125 -11.285156 0.515625 -11.390625 C 0.597656 -11.554688 0.734375 -11.664062 0.921875 -11.71875 C 1.054688 -11.769531 1.191406 -11.785156 1.328125 -11.765625 C 1.472656 -11.753906 1.613281 -11.753906 1.75 -11.765625 C 1.925781 -11.773438 2.097656 -11.78125 2.265625 -11.78125 C 2.429688 -11.789062 2.601562 -11.796875 2.78125 -11.796875 C 2.945312 -11.804688 3.109375 -11.8125 3.265625 -11.8125 C 3.429688 -11.8125 3.601562 -11.8125 3.78125 -11.8125 L 6.640625 -11.8125 C 6.785156 -11.8125 6.925781 -11.800781 7.0625 -11.78125 C 7.207031 -11.769531 7.351562 -11.738281 7.5 -11.6875 C 7.726562 -11.613281 7.882812 -11.453125 7.96875 -11.203125 C 8.039062 -11.046875 8.0625 -10.882812 8.03125 -10.71875 C 8 -10.5625 7.910156 -10.429688 7.765625 -10.328125 C 7.578125 -10.203125 7.367188 -10.144531 7.140625 -10.15625 C 6.910156 -10.164062 6.691406 -10.160156 6.484375 -10.140625 C 6.492188 -10.003906 6.5 -9.8125 6.5 -9.5625 C 6.507812 -9.320312 6.519531 -9.066406 6.53125 -8.796875 C 6.539062 -8.535156 6.546875 -8.28125 6.546875 -8.03125 C 6.554688 -7.78125 6.5625 -7.566406 6.5625 -7.390625 C 6.664062 -7.390625 6.78125 -7.390625 6.90625 -7.390625 C 7.03125 -7.398438 7.15625 -7.398438 7.28125 -7.390625 C 7.40625 -7.390625 7.519531 -7.375 7.625 -7.34375 C 7.738281 -7.320312 7.84375 -7.273438 7.9375 -7.203125 C 8.082031 -7.085938 8.15625 -6.90625 8.15625 -6.65625 C 8.15625 -6.414062 8.097656 -6.21875 7.984375 -6.0625 C 7.890625 -5.945312 7.78125 -5.863281 7.65625 -5.8125 C 7.539062 -5.769531 7.414062 -5.738281 7.28125 -5.71875 C 7.144531 -5.695312 7.007812 -5.6875 6.875 -5.6875 C 6.738281 -5.695312 6.609375 -5.703125 6.484375 -5.703125 Z M 11.8125 -6.03125 C 11.8125 -6.03125 11.804688 -5.992188 11.796875 -5.921875 C 11.785156 -5.847656 11.765625 -5.765625 11.734375 -5.671875 C 11.703125 -5.578125 11.65625 -5.476562 11.59375 -5.375 C 11.53125 -5.269531 11.441406 -5.1875 11.328125 -5.125 C 11.179688 -5.039062 11.035156 -5 10.890625 -5 C 10.710938 -5 10.535156 -5.054688 10.359375 -5.171875 C 10.242188 -5.253906 10.15625 -5.367188 10.09375 -5.515625 C 10.007812 -5.671875 9.953125 -5.84375 9.921875 -6.03125 C 9.898438 -6.21875 9.882812 -6.410156 9.875 -6.609375 C 9.875 -6.816406 9.878906 -7.019531 9.890625 -7.21875 C 9.898438 -7.414062 9.90625 -7.601562 9.90625 -7.78125 C 9.914062 -8.238281 9.921875 -8.691406 9.921875 -9.140625 C 9.921875 -9.585938 9.921875 -10.035156 9.921875 -10.484375 L 9.921875 -10.6875 C 9.910156 -10.800781 9.90625 -10.921875 9.90625 -11.046875 C 9.914062 -11.179688 9.9375 -11.3125 9.96875 -11.4375 C 10.007812 -11.59375 10.101562 -11.757812 10.25 -11.9375 C 10.332031 -12.039062 10.453125 -12.113281 10.609375 -12.15625 C 10.765625 -12.207031 10.929688 -12.222656 11.109375 -12.203125 C 11.429688 -12.148438 11.644531 -12.015625 11.75 -11.796875 C 11.8125 -11.660156 11.835938 -11.488281 11.828125 -11.28125 C 11.828125 -11.082031 11.820312 -10.960938 11.8125 -10.921875 Z M 4.8125 -7.546875 C 4.820312 -7.609375 4.820312 -7.671875 4.8125 -7.734375 C 4.8125 -7.804688 4.816406 -7.875 4.828125 -7.9375 L 4.828125 -8.921875 C 4.828125 -9.066406 4.828125 -9.210938 4.828125 -9.359375 C 4.828125 -9.503906 4.820312 -9.648438 4.8125 -9.796875 C 4.8125 -9.867188 4.800781 -9.929688 4.78125 -9.984375 C 4.769531 -10.035156 4.726562 -10.078125 4.65625 -10.109375 C 4.59375 -10.128906 4.519531 -10.140625 4.4375 -10.140625 C 4.363281 -10.140625 4.289062 -10.140625 4.21875 -10.140625 C 4.125 -10.140625 4.03125 -10.140625 3.9375 -10.140625 C 3.84375 -10.140625 3.753906 -10.132812 3.671875 -10.125 C 3.628906 -10.113281 3.59375 -10.109375 3.5625 -10.109375 C 3.53125 -10.117188 3.492188 -10.113281 3.453125 -10.09375 C 3.367188 -10.050781 3.320312 -9.988281 3.3125 -9.90625 C 3.300781 -9.820312 3.304688 -9.742188 3.328125 -9.671875 C 3.335938 -9.585938 3.335938 -9.5 3.328125 -9.40625 C 3.328125 -9.3125 3.328125 -9.222656 3.328125 -9.140625 L 3.328125 -7.796875 C 3.328125 -7.734375 3.320312 -7.664062 3.3125 -7.59375 C 3.3125 -7.53125 3.335938 -7.46875 3.390625 -7.40625 C 3.453125 -7.351562 3.519531 -7.335938 3.59375 -7.359375 C 3.71875 -7.359375 3.84375 -7.351562 3.96875 -7.34375 C 4.09375 -7.34375 4.21875 -7.351562 4.34375 -7.375 C 4.394531 -7.375 4.445312 -7.367188 4.5 -7.359375 C 4.550781 -7.359375 4.601562 -7.363281 4.65625 -7.375 C 4.71875 -7.382812 4.757812 -7.398438 4.78125 -7.421875 C 4.800781 -7.441406 4.8125 -7.484375 4.8125 -7.546875 Z M 4.8125 -7.546875 "/></g></g></g><g fill="rgb(88.238525%, 88.238525%, 88.238525%)" fill-opacity="1"><g transform="translate(77.172507, 19.014376)"><g><path d="M 11.203125 -2.328125 C 11.234375 -2.316406 11.265625 -2.3125 11.296875 -2.3125 C 11.328125 -2.320312 11.359375 -2.328125 11.390625 -2.328125 C 11.578125 -2.304688 11.742188 -2.269531 11.890625 -2.21875 C 12.046875 -2.175781 12.195312 -2.085938 12.34375 -1.953125 C 12.5 -1.828125 12.578125 -1.644531 12.578125 -1.40625 C 12.578125 -1.289062 12.554688 -1.164062 12.515625 -1.03125 C 12.484375 -0.90625 12.429688 -0.804688 12.359375 -0.734375 C 12.273438 -0.648438 12.171875 -0.582031 12.046875 -0.53125 C 11.929688 -0.488281 11.8125 -0.457031 11.6875 -0.4375 C 11.570312 -0.425781 11.46875 -0.421875 11.375 -0.421875 C 11.28125 -0.421875 11.226562 -0.421875 11.21875 -0.421875 L 2.515625 -0.421875 C 2.453125 -0.421875 2.367188 -0.414062 2.265625 -0.40625 C 2.160156 -0.40625 2.082031 -0.40625 2.03125 -0.40625 C 1.800781 -0.394531 1.554688 -0.394531 1.296875 -0.40625 C 1.046875 -0.425781 0.832031 -0.515625 0.65625 -0.671875 C 0.425781 -0.867188 0.3125 -1.09375 0.3125 -1.34375 C 0.3125 -1.507812 0.359375 -1.675781 0.453125 -1.84375 C 0.554688 -2.007812 0.6875 -2.125 0.84375 -2.1875 C 1.050781 -2.269531 1.269531 -2.3125 1.5 -2.3125 C 1.726562 -2.3125 1.957031 -2.316406 2.1875 -2.328125 L 2.265625 -2.328125 C 2.429688 -2.328125 2.617188 -2.328125 2.828125 -2.328125 C 3.046875 -2.335938 3.238281 -2.34375 3.40625 -2.34375 C 3.394531 -2.382812 3.390625 -2.441406 3.390625 -2.515625 L 3.390625 -4.046875 C 3.390625 -4.140625 3.40625 -4.234375 3.4375 -4.328125 C 3.46875 -4.410156 3.507812 -4.5 3.5625 -4.59375 C 3.613281 -4.6875 3.6875 -4.773438 3.78125 -4.859375 C 3.382812 -4.953125 3.015625 -5.097656 2.671875 -5.296875 C 2.328125 -5.503906 2.03125 -5.789062 1.78125 -6.15625 C 1.53125 -6.488281 1.363281 -6.835938 1.28125 -7.203125 C 1.207031 -7.578125 1.171875 -7.960938 1.171875 -8.359375 C 1.171875 -9.191406 1.390625 -9.882812 1.828125 -10.4375 C 2.273438 -10.988281 2.878906 -11.390625 3.640625 -11.640625 C 4.140625 -11.804688 4.648438 -11.910156 5.171875 -11.953125 C 5.703125 -12.003906 6.234375 -12.007812 6.765625 -11.96875 C 7.191406 -11.9375 7.625 -11.894531 8.0625 -11.84375 C 8.5 -11.789062 8.914062 -11.675781 9.3125 -11.5 C 9.5 -11.40625 9.675781 -11.300781 9.84375 -11.1875 C 10.007812 -11.070312 10.164062 -10.9375 10.3125 -10.78125 C 10.6875 -10.375 10.941406 -9.9375 11.078125 -9.46875 C 11.210938 -9.007812 11.257812 -8.515625 11.21875 -7.984375 C 11.15625 -7.160156 10.910156 -6.5 10.484375 -6 C 10.066406 -5.507812 9.539062 -5.15625 8.90625 -4.9375 C 9.019531 -4.875 9.113281 -4.789062 9.1875 -4.6875 C 9.257812 -4.582031 9.300781 -4.453125 9.3125 -4.296875 C 9.320312 -4.128906 9.328125 -3.867188 9.328125 -3.515625 C 9.335938 -3.160156 9.34375 -2.765625 9.34375 -2.328125 L 9.984375 -2.328125 C 10.171875 -2.316406 10.378906 -2.316406 10.609375 -2.328125 C 10.835938 -2.347656 11.035156 -2.347656 11.203125 -2.328125 Z M 9.140625 -7.75 C 9.171875 -7.882812 9.179688 -8.015625 9.171875 -8.140625 C 9.148438 -8.691406 8.976562 -9.101562 8.65625 -9.375 C 8.332031 -9.644531 7.914062 -9.8125 7.40625 -9.875 C 7.113281 -9.90625 6.75 -9.9375 6.3125 -9.96875 C 5.882812 -10.007812 5.457031 -10 5.03125 -9.9375 C 4.613281 -9.875 4.242188 -9.742188 3.921875 -9.546875 C 3.609375 -9.347656 3.421875 -9.039062 3.359375 -8.625 C 3.328125 -8.363281 3.328125 -8.117188 3.359375 -7.890625 C 3.398438 -7.660156 3.488281 -7.453125 3.625 -7.265625 C 3.769531 -7.085938 3.960938 -6.9375 4.203125 -6.8125 C 4.453125 -6.6875 4.765625 -6.609375 5.140625 -6.578125 C 5.515625 -6.535156 5.894531 -6.492188 6.28125 -6.453125 C 6.664062 -6.421875 7.039062 -6.445312 7.40625 -6.53125 C 7.59375 -6.5625 7.773438 -6.601562 7.953125 -6.65625 C 8.140625 -6.71875 8.3125 -6.796875 8.46875 -6.890625 C 8.632812 -6.984375 8.773438 -7.101562 8.890625 -7.25 C 9.003906 -7.394531 9.085938 -7.5625 9.140625 -7.75 Z M 7 -4.65625 C 6.726562 -4.65625 6.441406 -4.648438 6.140625 -4.640625 C 5.835938 -4.640625 5.53125 -4.648438 5.21875 -4.671875 C 5.289062 -4.546875 5.332031 -4.421875 5.34375 -4.296875 C 5.351562 -4.128906 5.359375 -3.867188 5.359375 -3.515625 C 5.367188 -3.160156 5.375 -2.765625 5.375 -2.328125 L 7.375 -2.328125 C 7.363281 -2.367188 7.359375 -2.429688 7.359375 -2.515625 L 7.359375 -4.046875 C 7.359375 -4.109375 7.367188 -4.175781 7.390625 -4.25 C 7.410156 -4.300781 7.429688 -4.363281 7.453125 -4.4375 C 7.484375 -4.519531 7.523438 -4.597656 7.578125 -4.671875 C 7.472656 -4.660156 7.375 -4.65625 7.28125 -4.65625 C 7.1875 -4.65625 7.09375 -4.65625 7 -4.65625 Z M 7 -4.65625 "/></g></g></g><g fill="rgb(88.238525%, 88.238525%, 88.238525%)" fill-opacity="1"><g transform="translate(90.407255, 19.014376)"><g><path d="M 5.703125 -10.984375 C 5.859375 -10.984375 6.03125 -10.957031 6.21875 -10.90625 C 6.363281 -10.851562 6.488281 -10.722656 6.59375 -10.515625 C 6.675781 -10.234375 6.644531 -9.960938 6.5 -9.703125 C 6.445312 -9.648438 6.390625 -9.597656 6.328125 -9.546875 C 6.273438 -9.503906 6.222656 -9.457031 6.171875 -9.40625 C 6.109375 -9.382812 6.035156 -9.363281 5.953125 -9.34375 C 5.867188 -9.320312 5.785156 -9.3125 5.703125 -9.3125 C 5.617188 -9.289062 5.535156 -9.28125 5.453125 -9.28125 C 5.378906 -9.28125 5.285156 -9.289062 5.171875 -9.3125 L 4.671875 -9.3125 L 1.671875 -9.359375 C 1.453125 -9.359375 1.269531 -9.378906 1.125 -9.421875 C 0.976562 -9.472656 0.863281 -9.53125 0.78125 -9.59375 C 0.695312 -9.675781 0.628906 -9.769531 0.578125 -9.875 C 0.535156 -9.976562 0.5 -10.101562 0.46875 -10.25 C 0.46875 -10.4375 0.554688 -10.613281 0.734375 -10.78125 C 0.816406 -10.863281 0.898438 -10.914062 0.984375 -10.9375 C 1.078125 -10.96875 1.179688 -10.984375 1.296875 -10.984375 L 2.4375 -10.984375 C 2.5625 -10.984375 2.625 -11 2.625 -11.03125 C 2.625 -11.070312 2.628906 -11.101562 2.640625 -11.125 C 2.660156 -11.15625 2.671875 -11.179688 2.671875 -11.203125 L 2.671875 -11.375 C 2.671875 -11.488281 2.6875 -11.585938 2.71875 -11.671875 C 2.75 -11.753906 2.773438 -11.828125 2.796875 -11.890625 C 2.835938 -11.941406 2.890625 -11.992188 2.953125 -12.046875 C 3.015625 -12.109375 3.085938 -12.164062 3.171875 -12.21875 C 3.242188 -12.25 3.332031 -12.269531 3.4375 -12.28125 C 3.539062 -12.300781 3.640625 -12.300781 3.734375 -12.28125 C 3.835938 -12.269531 3.925781 -12.238281 4 -12.1875 C 4.082031 -12.144531 4.144531 -12.082031 4.1875 -12 C 4.25 -11.914062 4.28125 -11.835938 4.28125 -11.765625 C 4.300781 -11.742188 4.3125 -11.710938 4.3125 -11.671875 C 4.320312 -11.628906 4.328125 -11.585938 4.328125 -11.546875 C 4.359375 -11.472656 4.359375 -11.382812 4.328125 -11.28125 C 4.328125 -11.238281 4.328125 -11.191406 4.328125 -11.140625 C 4.328125 -11.097656 4.335938 -11.046875 4.359375 -10.984375 Z M 4.0625 -8.71875 C 4.28125 -8.695312 4.484375 -8.648438 4.671875 -8.578125 C 4.859375 -8.515625 5.039062 -8.414062 5.21875 -8.28125 C 5.363281 -8.15625 5.503906 -8.015625 5.640625 -7.859375 C 5.773438 -7.703125 5.898438 -7.515625 6.015625 -7.296875 C 6.160156 -6.941406 6.273438 -6.488281 6.359375 -5.9375 C 6.410156 -5.675781 6.445312 -5.421875 6.46875 -5.171875 C 6.488281 -4.921875 6.5 -4.660156 6.5 -4.390625 C 6.5 -4.128906 6.484375 -3.867188 6.453125 -3.609375 C 6.429688 -3.359375 6.390625 -3.117188 6.328125 -2.890625 C 6.285156 -2.640625 6.234375 -2.40625 6.171875 -2.1875 C 6.117188 -1.96875 6.050781 -1.765625 5.96875 -1.578125 C 5.851562 -1.359375 5.726562 -1.171875 5.59375 -1.015625 C 5.457031 -0.867188 5.289062 -0.738281 5.09375 -0.625 C 4.726562 -0.40625 4.332031 -0.273438 3.90625 -0.234375 C 3.476562 -0.203125 3.050781 -0.269531 2.625 -0.4375 C 2.21875 -0.570312 1.890625 -0.820312 1.640625 -1.1875 C 1.421875 -1.488281 1.25 -1.800781 1.125 -2.125 C 1 -2.457031 0.914062 -2.8125 0.875 -3.1875 C 0.851562 -3.382812 0.832031 -3.578125 0.8125 -3.765625 C 0.789062 -3.953125 0.78125 -4.132812 0.78125 -4.3125 C 0.78125 -4.5 0.78125 -4.671875 0.78125 -4.828125 C 0.789062 -4.984375 0.804688 -5.148438 0.828125 -5.328125 C 0.828125 -5.503906 0.84375 -5.675781 0.875 -5.84375 C 0.90625 -6.007812 0.945312 -6.179688 1 -6.359375 C 1.1875 -7.117188 1.539062 -7.710938 2.0625 -8.140625 C 2.582031 -8.566406 3.25 -8.757812 4.0625 -8.71875 Z M 3.953125 -2 C 4.117188 -2.03125 4.269531 -2.113281 4.40625 -2.25 C 4.476562 -2.332031 4.539062 -2.421875 4.59375 -2.515625 C 4.65625 -2.609375 4.707031 -2.707031 4.75 -2.8125 C 4.800781 -2.925781 4.835938 -3.039062 4.859375 -3.15625 C 4.878906 -3.269531 4.898438 -3.382812 4.921875 -3.5 C 4.941406 -3.625 4.953125 -3.738281 4.953125 -3.84375 C 4.960938 -3.957031 4.96875 -4.066406 4.96875 -4.171875 L 4.96875 -4.796875 C 4.945312 -4.910156 4.929688 -5.019531 4.921875 -5.125 C 4.910156 -5.226562 4.894531 -5.34375 4.875 -5.46875 C 4.851562 -5.570312 4.832031 -5.675781 4.8125 -5.78125 C 4.789062 -5.882812 4.753906 -5.976562 4.703125 -6.0625 C 4.660156 -6.144531 4.617188 -6.226562 4.578125 -6.3125 C 4.535156 -6.394531 4.476562 -6.472656 4.40625 -6.546875 C 4.34375 -6.585938 4.273438 -6.617188 4.203125 -6.640625 C 4.140625 -6.660156 4.066406 -6.679688 3.984375 -6.703125 C 3.898438 -6.722656 3.816406 -6.722656 3.734375 -6.703125 C 3.648438 -6.691406 3.566406 -6.675781 3.484375 -6.65625 C 3.390625 -6.632812 3.304688 -6.613281 3.234375 -6.59375 C 3.160156 -6.570312 3.082031 -6.53125 3 -6.46875 C 2.894531 -6.375 2.800781 -6.238281 2.71875 -6.0625 C 2.570312 -5.613281 2.5 -5.191406 2.5 -4.796875 C 2.5 -4.546875 2.5 -4.3125 2.5 -4.09375 C 2.507812 -3.875 2.535156 -3.640625 2.578125 -3.390625 C 2.597656 -3.285156 2.628906 -3.171875 2.671875 -3.046875 C 2.710938 -2.929688 2.753906 -2.8125 2.796875 -2.6875 C 2.835938 -2.582031 2.890625 -2.476562 2.953125 -2.375 C 3.015625 -2.269531 3.085938 -2.1875 3.171875 -2.125 C 3.191406 -2.101562 3.210938 -2.085938 3.234375 -2.078125 C 3.253906 -2.066406 3.289062 -2.050781 3.34375 -2.03125 C 3.363281 -2.03125 3.394531 -2.03125 3.4375 -2.03125 C 3.476562 -2.03125 3.519531 -2.019531 3.5625 -2 Z M 11.984375 -1.265625 C 12.003906 -1.117188 12.007812 -0.96875 12 -0.8125 C 11.988281 -0.664062 11.972656 -0.515625 11.953125 -0.359375 C 11.921875 -0.128906 11.835938 0.0507812 11.703125 0.1875 C 11.566406 0.332031 11.410156 0.414062 11.234375 0.4375 C 11.066406 0.46875 10.898438 0.429688 10.734375 0.328125 C 10.578125 0.222656 10.453125 0.046875 10.359375 -0.203125 C 10.304688 -0.378906 10.28125 -0.5625 10.28125 -0.75 C 10.257812 -0.832031 10.242188 -0.914062 10.234375 -1 C 10.234375 -1.09375 10.234375 -1.179688 10.234375 -1.265625 L 10.234375 -4.953125 L 9.203125 -4.953125 L 9.203125 -1.1875 C 9.222656 -1.050781 9.226562 -0.921875 9.21875 -0.796875 C 9.207031 -0.671875 9.203125 -0.535156 9.203125 -0.390625 C 9.179688 -0.265625 9.144531 -0.140625 9.09375 -0.015625 C 9.050781 0.0976562 8.984375 0.191406 8.890625 0.265625 C 8.804688 0.347656 8.703125 0.410156 8.578125 0.453125 C 8.453125 0.492188 8.304688 0.488281 8.140625 0.4375 C 7.953125 0.363281 7.800781 0.242188 7.6875 0.078125 C 7.582031 -0.078125 7.519531 -0.25 7.5 -0.4375 C 7.476562 -0.582031 7.46875 -0.71875 7.46875 -0.84375 C 7.46875 -0.96875 7.46875 -1.09375 7.46875 -1.21875 L 7.46875 -11.078125 C 7.46875 -11.234375 7.492188 -11.40625 7.546875 -11.59375 C 7.640625 -11.769531 7.726562 -11.90625 7.8125 -12 C 7.894531 -12.132812 8.015625 -12.222656 8.171875 -12.265625 C 8.304688 -12.285156 8.425781 -12.28125 8.53125 -12.25 C 8.632812 -12.226562 8.71875 -12.175781 8.78125 -12.09375 C 8.84375 -12.019531 8.894531 -11.941406 8.9375 -11.859375 C 8.976562 -11.785156 9.023438 -11.695312 9.078125 -11.59375 C 9.097656 -11.488281 9.113281 -11.378906 9.125 -11.265625 C 9.144531 -11.148438 9.15625 -11.03125 9.15625 -10.90625 C 9.175781 -10.769531 9.1875 -10.632812 9.1875 -10.5 C 9.195312 -10.375 9.203125 -10.242188 9.203125 -10.109375 L 9.203125 -6.875 L 10.234375 -6.875 L 10.234375 -10.984375 C 10.234375 -11.066406 10.234375 -11.160156 10.234375 -11.265625 C 10.242188 -11.367188 10.257812 -11.460938 10.28125 -11.546875 C 10.3125 -11.734375 10.398438 -11.882812 10.546875 -12 C 10.640625 -12.125 10.789062 -12.210938 11 -12.265625 C 11.125 -12.265625 11.234375 -12.25 11.328125 -12.21875 C 11.421875 -12.1875 11.5 -12.128906 11.5625 -12.046875 C 11.625 -11.992188 11.679688 -11.925781 11.734375 -11.84375 C 11.796875 -11.757812 11.835938 -11.660156 11.859375 -11.546875 C 11.878906 -11.429688 11.898438 -11.316406 11.921875 -11.203125 C 11.941406 -11.097656 11.960938 -10.984375 11.984375 -10.859375 C 11.984375 -10.742188 11.988281 -10.625 12 -10.5 C 12.019531 -10.375 12.03125 -10.242188 12.03125 -10.109375 C 12.007812 -10.003906 11.992188 -9.90625 11.984375 -9.8125 C 11.984375 -9.71875 11.984375 -9.628906 11.984375 -9.546875 Z M 11.984375 -1.265625 "/></g></g></g></svg>